<?xml version="1.0" encoding="UTF-8"?>
<svg id="Speech_Bubble" xmlns="http://www.w3.org/2000/svg" viewBox="0 0 435.42 455.6">
  <defs>
    <style>
      .cls-1 {
        fill: #2d55cc;
      }

      .cls-2 {
        fill: #263338;
      }

      .cls-3, .cls-4 {
        opacity: .3;
      }

      .cls-5, .cls-4 {
        fill: #fff;
      }

      .cls-6 {
        fill: #445c64;
      }

      .cls-7 {
        fill: #f0f0f0;
      }

      .cls-8 {
        fill: #fdbba7;
      }

      .cls-9 {
        fill: #e0e0e0;
      }

      .cls-10 {
        opacity: .65;
      }

      .cls-11 {
        opacity: .2;
      }

      .cls-12 {
        fill: #ee967a;
      }

      .cls-13 {
        opacity: .1;
      }

      .cls-14 {
        fill: #36484f;
      }

      .cls-15 {
        fill: #fafafa;
      }
    </style>
  </defs>
  <g id="Wall-2" data-name="Wall">
    <path class="cls-7" d="M232.04,43.02v5.2c0,1.64,1.15,2.3,2.57,1.48l23.79-13.73c1.42-.82,2.57-2.81,2.57-4.45v-5.2c0-1.64-1.15-2.3-2.57-1.48l-23.79,13.74c-1.42.82-2.57,2.81-2.57,4.45Z"/>
    <path class="cls-7" d="M434.61,166.15l-20.95,12.09c-1.42.82-2.57,2.81-2.57,4.45v5.2c0,1.64,1.15,2.3,2.57,1.48l20.95-12.09v-11.13Z"/>
    <path class="cls-7" d="M429.59,193.82l5.02-2.9v-11.13l-5.02,2.9c-1.42.82-2.57,2.81-2.57,4.45v5.2c0,1.64,1.15,2.3,2.57,1.48Z"/>
    <path class="cls-7" d="M49.41,188.76l-23.79,13.73c-.32.18-.62.43-.9.72v10.74c.28-.04.58-.14.9-.32l23.79-13.74c1.42-.82,2.57-2.81,2.57-4.45v-5.2c0-1.64-1.15-2.3-2.57-1.48Z"/>
    <path class="cls-7" d="M49.2,300.6l-23.79,13.73c-.24.14-.46.32-.68.51v10.9c.22-.06.44-.14.68-.27l23.79-13.74c1.42-.82,2.57-2.81,2.57-4.45v-5.2c0-1.64-1.15-2.3-2.57-1.48Z"/>
    <path class="cls-7" d="M49.41,243.45l-23.79,13.74c-.32.18-.62.43-.9.72v10.74c.28-.04.58-.14.9-.32l23.79-13.74c1.42-.82,2.57-2.81,2.57-4.45v-5.2c0-1.64-1.15-2.3-2.57-1.48Z"/>
    <path class="cls-7" d="M312.95,63.23l-23.79,13.74c-1.42.82-2.57,2.81-2.57,4.45v5.2c0,1.64,1.15,2.3,2.57,1.48l23.79-13.74c1.42-.82,2.57-2.81,2.57-4.45v-5.2c0-1.64-1.15-2.3-2.57-1.48Z"/>
    <path class="cls-7" d="M327.98,40.95l-23.79,13.74c-1.42.82-2.57,2.81-2.57,4.45v5.2c0,1.64,1.15,2.3,2.57,1.48l23.79-13.74c1.42-.82,2.57-2.81,2.57-4.45v-5.2c0-1.64-1.15-2.3-2.57-1.48Z"/>
    <path class="cls-7" d="M158.2,207.13l-23.79,13.74c-1.42.82-2.57,2.81-2.57,4.45v5.2c0,1.64,1.15,2.3,2.57,1.48l23.79-13.74c1.42-.82,2.57-2.81,2.57-4.45v-5.2c0-1.64-1.15-2.3-2.57-1.48Z"/>
    <path class="cls-7" d="M224.69,144.45v5.2c0,1.64,1.15,2.3,2.57,1.48l23.79-13.74c1.42-.82,2.57-2.81,2.57-4.45v-5.2c0-1.64-1.15-2.3-2.57-1.48l-23.79,13.73c-1.42.82-2.57,2.81-2.57,4.45Z"/>
    <path class="cls-7" d="M193.74,122.91v5.2c0,1.64,1.15,2.3,2.57,1.48l23.79-13.74c1.42-.82,2.57-2.81,2.57-4.45v-5.2c0-1.64-1.15-2.3-2.57-1.48l-23.79,13.73c-1.42.82-2.57,2.81-2.57,4.45Z"/>
    <path class="cls-7" d="M266.08,49.29l-23.79,13.74c-1.42.82-2.57,2.81-2.57,4.45v5.2c0,1.64,1.15,2.3,2.57,1.48l23.79-13.74c1.42-.82,2.57-2.81,2.57-4.45v-5.2c0-1.64-1.15-2.3-2.57-1.48Z"/>
    <path class="cls-7" d="M142.27,148l-23.79,13.74c-1.42.82-2.57,2.81-2.57,4.45v5.2c0,1.64,1.15,2.3,2.57,1.48l23.79-13.74c1.42-.82,2.57-2.81,2.57-4.45v-5.2c0-1.64-1.15-2.3-2.57-1.48Z"/>
    <path class="cls-7" d="M227.26,205.83l23.79-13.74c1.42-.82,2.57-2.81,2.57-4.45v-5.2c0-1.64-1.15-2.3-2.57-1.48l-23.79,13.74c-1.42.82-2.57,2.81-2.57,4.45v5.2c0,1.64,1.15,2.3,2.57,1.48Z"/>
    <path class="cls-7" d="M56.58,263.24l23.79-13.73c1.42-.82,2.57-2.81,2.57-4.45v-5.2c0-1.64-1.15-2.3-2.57-1.48l-23.79,13.73c-1.42.82-2.57,2.81-2.57,4.45v5.2c0,1.64,1.15,2.3,2.57,1.48Z"/>
    <path class="cls-7" d="M411.09,115.25v5.2c0,1.64,1.15,2.3,2.57,1.48l20.94-12.09v-11.14l-20.94,12.09c-1.42.82-2.57,2.81-2.57,4.45Z"/>
    <path class="cls-7" d="M196.31,333.06l23.79-13.74c1.42-.82,2.57-2.81,2.57-4.45v-5.2c0-1.64-1.15-2.3-2.57-1.48l-23.79,13.73c-1.42.82-2.57,2.81-2.57,4.45v5.2c0,1.64,1.15,2.3,2.57,1.48Z"/>
    <path class="cls-7" d="M298.92,276.86l23.79-13.74c1.42-.82,2.57-2.81,2.57-4.45v-5.2c0-1.64-1.15-2.3-2.57-1.48l-23.79,13.73c-1.42.82-2.57,2.81-2.57,4.45v5.2c0,1.64,1.15,2.3,2.57,1.48Z"/>
    <path class="cls-7" d="M427.28,36.3v-5.2c0-1.64-1.15-2.3-2.57-1.48l-23.79,13.74c-1.42.82-2.57,2.81-2.57,4.45v5.2c0,1.64,1.15,2.3,2.57,1.48l23.79-13.73c1.42-.82,2.57-2.81,2.57-4.45Z"/>
    <path class="cls-7" d="M82.94,381.8v-5.2c0-1.64-1.15-2.3-2.57-1.48l-23.79,13.73c-1.42.82-2.57,2.81-2.57,4.45v5.2c0,1.64,1.15,2.3,2.57,1.48l23.79-13.74c1.42-.82,2.57-2.81,2.57-4.45Z"/>
    <path class="cls-7" d="M131.84,33.88v5.2c0,1.64,1.15,2.3,2.57,1.48l23.79-13.74c1.42-.82,2.57-2.81,2.57-4.45v-5.2c0-1.64-1.15-2.3-2.57-1.48l-23.79,13.74c-1.42.82-2.57,2.81-2.57,4.45Z"/>
    <path class="cls-7" d="M434.61,139.25l-20.95,12.09c-1.42.82-2.57,2.81-2.57,4.45v5.2c0,1.64,1.15,2.3,2.57,1.48l20.95-12.09v-11.14Z"/>
    <path class="cls-7" d="M34.39,223.8l-9.67,5.58v11.14l9.67-5.58c1.42-.82,2.57-2.81,2.57-4.45v-5.2c0-1.64-1.15-2.3-2.57-1.48Z"/>
    <path class="cls-7" d="M72.5,377.07l23.79-13.74c1.42-.82,2.57-2.81,2.57-4.45v-5.2c0-1.64-1.15-2.3-2.57-1.48l-23.79,13.74c-1.42.82-2.57,2.81-2.57,4.45v5.2c0,1.64,1.15,2.3,2.57,1.48Z"/>
    <path class="cls-7" d="M49.41,338.26l-23.79,13.73c-.32.18-.62.43-.9.72v10.74c.28-.04.58-.14.9-.32l23.79-13.74c1.42-.82,2.57-2.81,2.57-4.45v-5.2c0-1.64-1.15-2.3-2.57-1.48Z"/>
    <path class="cls-7" d="M162.79,55.8v5.2c0,1.64,1.15,2.3,2.57,1.48l23.79-13.74c1.42-.82,2.57-2.81,2.57-4.45v-5.2c0-1.64-1.15-2.3-2.57-1.48l-23.79,13.73c-1.42.82-2.57,2.81-2.57,4.45Z"/>
    <path class="cls-7" d="M34.39,141.75l-9.67,5.58v11.14l9.67-5.58c1.42-.82,2.57-2.81,2.57-4.45v-5.2c0-1.64-1.15-2.3-2.57-1.48Z"/>
    <path class="cls-7" d="M80.37,101.63l-23.79,13.74c-1.42.82-2.57,2.81-2.57,4.45v5.2c0,1.64,1.15,2.3,2.57,1.48l23.79-13.74c1.42-.82,2.57-2.81,2.57-4.45v-5.2c0-1.64-1.15-2.3-2.57-1.48Z"/>
    <path class="cls-7" d="M142.27,38.6l-23.79,13.74c-1.42.82-2.57,2.81-2.57,4.45v5.2c0,1.64,1.15,2.3,2.57,1.48l23.79-13.74c1.42-.82,2.57-2.81,2.57-4.45v-5.2c0-1.64-1.15-2.3-2.57-1.48Z"/>
    <path class="cls-7" d="M134.41,341.39l23.79-13.74c1.42-.82,2.57-2.81,2.57-4.45v-5.2c0-1.64-1.15-2.3-2.57-1.48l-23.79,13.74c-1.42.82-2.57,2.81-2.57,4.45v5.2c0,1.64,1.15,2.3,2.57,1.48Z"/>
    <path class="cls-7" d="M175.79,300.93v-5.2c0-1.64-1.15-2.3-2.57-1.48l-23.79,13.74c-1.42.82-2.57,2.81-2.57,4.45v5.2c0,1.64,1.15,2.3,2.57,1.48l23.79-13.74c1.42-.82,2.57-2.81,2.57-4.45Z"/>
    <path class="cls-7" d="M142.27,120.65l-23.79,13.73c-1.42.82-2.57,2.81-2.57,4.45v5.2c0,1.64,1.15,2.3,2.57,1.48l23.79-13.73c1.42-.82,2.57-2.81,2.57-4.45v-5.2c0-1.64-1.15-2.3-2.57-1.48Z"/>
    <path class="cls-7" d="M173.22,60.52l-23.79,13.74c-1.42.82-2.57,2.81-2.57,4.45v5.2c0,1.64,1.15,2.3,2.57,1.48l23.79-13.74c1.42-.82,2.57-2.81,2.57-4.45v-5.2c0-1.64-1.15-2.3-2.57-1.48Z"/>
    <path class="cls-7" d="M69.93,233.65v5.2c0,1.64,1.15,2.3,2.57,1.48l23.79-13.73c1.42-.82,2.57-2.81,2.57-4.45v-5.2c0-1.64-1.15-2.3-2.57-1.48l-23.79,13.73c-1.42.82-2.57,2.81-2.57,4.45Z"/>
    <path class="cls-7" d="M402.23,96l23.79-13.74c1.42-.82,2.57-2.81,2.57-4.45v-5.2c0-1.64-1.15-2.3-2.57-1.48l-23.79,13.74c-1.42.82-2.57,2.81-2.57,4.45v5.2c0,1.64,1.15,2.3,2.57,1.48Z"/>
    <path class="cls-7" d="M72.5,349.73l23.79-13.73c1.42-.82,2.57-2.81,2.57-4.45v-5.2c0-1.64-1.15-2.3-2.57-1.48l-23.79,13.74c-1.42.82-2.57,2.81-2.57,4.45v5.2c0,1.64,1.15,2.3,2.57,1.48Z"/>
    <path class="cls-7" d="M127.24,252.32l-23.79,13.74c-1.42.82-2.57,2.81-2.57,4.45v5.2c0,1.64,1.15,2.3,2.57,1.48l23.79-13.74c1.42-.82,2.57-2.81,2.57-4.45v-5.2c0-1.64-1.15-2.3-2.57-1.48Z"/>
    <path class="cls-7" d="M162.79,180.13v5.2c0,1.64,1.15,2.3,2.57,1.48l23.79-13.74c1.42-.82,2.57-2.81,2.57-4.45v-5.2c0-1.64-1.15-2.3-2.57-1.48l-23.79,13.74c-1.42.82-2.57,2.81-2.57,4.45Z"/>
    <path class="cls-7" d="M301.06,102.97v5.2c0,1.64,1.15,2.3,2.57,1.48l23.79-13.74c1.42-.82,2.57-2.81,2.57-4.45v-5.2c0-1.64-1.15-2.3-2.57-1.48l-23.79,13.74c-1.42.82-2.57,2.81-2.57,4.45Z"/>
    <path class="cls-7" d="M362.47,18.54v5.2c0,1.64,1.15,2.3,2.57,1.48l23.79-13.74c1.42-.82,2.57-2.81,2.57-4.45V1.83c0-1.64-1.15-2.3-2.57-1.48l-23.79,13.74c-1.42.82-2.57,2.81-2.57,4.45Z"/>
    <path class="cls-7" d="M305.23,144.32v-5.2c0-1.64-1.15-2.3-2.57-1.48l-23.79,13.74c-1.42.82-2.57,2.81-2.57,4.45v5.2c0,1.64,1.15,2.3,2.57,1.48l23.79-13.73c1.42-.82,2.57-2.81,2.57-4.45Z"/>
    <path class="cls-7" d="M336.18,126.48v-5.2c0-1.64-1.15-2.3-2.57-1.48l-23.79,13.74c-1.42.82-2.57,2.81-2.57,4.45v5.2c0,1.64,1.15,2.3,2.57,1.48l23.79-13.73c1.42-.82,2.57-2.81,2.57-4.45Z"/>
    <path class="cls-7" d="M235.12,109.79l-23.79,13.74c-1.42.82-2.57,2.81-2.57,4.45v5.2c0,1.64,1.15,2.3,2.57,1.48l23.79-13.74c1.42-.82,2.57-2.81,2.57-4.45v-5.2c0-1.64-1.15-2.3-2.57-1.48Z"/>
    <path class="cls-7" d="M175.79,218.88v-5.2c0-1.64-1.15-2.3-2.57-1.48l-23.79,13.73c-1.42.82-2.57,2.81-2.57,4.45v5.2c0,1.64,1.15,2.3,2.57,1.48l23.79-13.74c1.42-.82,2.57-2.81,2.57-4.45Z"/>
    <path class="cls-7" d="M381.09,193.38l23.79-13.73c1.42-.82,2.57-2.81,2.57-4.45v-5.2c0-1.64-1.15-2.3-2.57-1.48l-23.79,13.74c-1.42.82-2.57,2.81-2.57,4.45v5.2c0,1.64,1.15,2.3,2.57,1.48Z"/>
    <path class="cls-7" d="M391.48,202.32l-23.79,13.73c-1.42.82-2.57,2.81-2.57,4.45v5.2c0,1.64,1.15,2.3,2.57,1.48l23.79-13.74c1.42-.82,2.57-2.81,2.57-4.45v-5.2c0-1.64-1.15-2.3-2.57-1.48Z"/>
    <path class="cls-7" d="M224.69,256.91v-5.2c0-1.64-1.15-2.3-2.57-1.48l-23.79,13.74c-1.42.82-2.57,2.81-2.57,4.45v5.2c0,1.64,1.15,2.3,2.57,1.48l23.79-13.74c1.42-.82,2.57-2.81,2.57-4.45Z"/>
    <path class="cls-7" d="M206.74,337.78v-5.2c0-1.64-1.15-2.3-2.57-1.48l-23.79,13.73c-1.42.82-2.57,2.81-2.57,4.45v5.2c0,1.64,1.15,2.3,2.57,1.48l23.79-13.73c1.42-.82,2.57-2.81,2.57-4.45Z"/>
    <path class="cls-7" d="M100.88,51.72v5.2c0,1.64,1.15,2.3,2.57,1.48l23.79-13.74c1.42-.82,2.57-2.81,2.57-4.45v-5.2c0-1.64-1.15-2.3-2.57-1.48l-23.79,13.74c-1.42.82-2.57,2.81-2.57,4.45Z"/>
    <path class="cls-7" d="M144.84,373.46v-5.2c0-1.64-1.15-2.3-2.57-1.48l-23.79,13.74c-1.42.82-2.57,2.81-2.57,4.45v5.2c0,1.64,1.15,2.3,2.57,1.48l23.79-13.74c1.42-.82,2.57-2.81,2.57-4.45Z"/>
    <path class="cls-7" d="M34.39,415.23l-9.67,5.58v11.14l9.67-5.58c1.42-.82,2.57-2.81,2.57-4.45v-5.2c0-1.64-1.15-2.3-2.57-1.48Z"/>
    <path class="cls-7" d="M49.41,146.82l-23.79,13.74c-.32.18-.62.43-.9.72v10.74c.28-.04.58-.14.9-.32l23.79-13.73c1.42-.82,2.57-2.81,2.57-4.45v-5.2c0-1.64-1.15-2.3-2.57-1.48Z"/>
    <path class="cls-7" d="M165.36,323.55l23.79-13.74c1.42-.82,2.57-2.81,2.57-4.45v-5.2c0-1.64-1.15-2.3-2.57-1.48l-23.79,13.74c-1.42.82-2.57,2.81-2.57,4.45v5.2c0,1.64,1.15,2.3,2.57,1.48Z"/>
    <path class="cls-7" d="M422.43,119.34l-23.79,13.73c-1.42.82-2.57,2.81-2.57,4.45v5.2c0,1.64,1.15,2.3,2.57,1.48l23.79-13.73c1.42-.82,2.57-2.81,2.57-4.45v-5.2c0-1.64-1.15-2.3-2.57-1.48Z"/>
    <path class="cls-7" d="M204.17,42.68l-23.79,13.73c-1.42.82-2.57,2.81-2.57,4.45v5.2c0,1.64,1.15,2.3,2.57,1.48l23.79-13.74c1.42-.82,2.57-2.81,2.57-4.45v-5.2c0-1.64-1.15-2.3-2.57-1.48Z"/>
    <path class="cls-7" d="M320.3,9.73l-23.79,13.74c-1.42.82-2.57,2.81-2.57,4.45v5.2c0,1.64,1.15,2.3,2.57,1.48l23.79-13.73c1.42-.82,2.57-2.81,2.57-4.45v-5.2c0-1.64-1.15-2.3-2.57-1.48Z"/>
    <path class="cls-7" d="M87.53,190.71l23.79-13.74c1.42-.82,2.57-2.81,2.57-4.45v-5.2c0-1.64-1.15-2.3-2.57-1.48l-23.79,13.74c-1.42.82-2.57,2.81-2.57,4.45v5.2c0,1.64,1.15,2.3,2.57,1.48Z"/>
    <path class="cls-7" d="M206.74,255.74v-5.2c0-1.64-1.15-2.3-2.57-1.48l-23.79,13.73c-1.42.82-2.57,2.81-2.57,4.45v5.2c0,1.64,1.15,2.3,2.57,1.48l23.79-13.74c1.42-.82,2.57-2.81,2.57-4.45Z"/>
    <path class="cls-7" d="M251.55,280.24l23.79-13.74c1.42-.82,2.57-2.81,2.57-4.45v-5.2c0-1.64-1.15-2.3-2.57-1.48l-23.79,13.74c-1.42.82-2.57,2.81-2.57,4.45v5.2c0,1.64,1.15,2.3,2.57,1.48Z"/>
    <path class="cls-7" d="M292.94,239.77v-5.2c0-1.64-1.15-2.3-2.57-1.48l-23.79,13.74c-1.42.82-2.57,2.81-2.57,4.45v5.2c0,1.64,1.15,2.3,2.57,1.48l23.79-13.74c1.42-.82,2.57-2.81,2.57-4.45Z"/>
    <path class="cls-7" d="M329.68,196.86v-5.2c0-1.64-1.15-2.3-2.57-1.48l-23.79,13.74c-1.42.82-2.57,2.81-2.57,4.45v5.2c0,1.64,1.15,2.3,2.57,1.48l23.79-13.74c1.42-.82,2.57-2.81,2.57-4.45Z"/>
    <path class="cls-7" d="M282.5,262.4l23.79-13.74c1.42-.82,2.57-2.81,2.57-4.45v-5.2c0-1.64-1.15-2.3-2.57-1.48l-23.79,13.74c-1.42.82-2.57,2.81-2.57,4.45v5.2c0,1.64,1.15,2.3,2.57,1.48Z"/>
    <path class="cls-7" d="M311.73,195.69v-5.2c0-1.64-1.15-2.3-2.57-1.48l-23.79,13.73c-1.42.82-2.57,2.81-2.57,4.45v5.2c0,1.64,1.15,2.3,2.57,1.48l23.79-13.74c1.42-.82,2.57-2.81,2.57-4.45Z"/>
    <path class="cls-7" d="M294.79,166.95l23.79-13.74c1.42-.82,2.57-2.81,2.57-4.45v-5.2c0-1.64-1.15-2.3-2.57-1.48l-23.79,13.73c-1.42.82-2.57,2.81-2.57,4.45v5.2c0,1.64,1.15,2.3,2.57,1.48Z"/>
    <path class="cls-7" d="M237.69,183.2v-5.2c0-1.64-1.15-2.3-2.57-1.48l-23.79,13.74c-1.42.82-2.57,2.81-2.57,4.45v5.2c0,1.64,1.15,2.3,2.57,1.48l23.79-13.73c1.42-.82,2.57-2.81,2.57-4.45Z"/>
    <path class="cls-7" d="M33.27,296.16l-8.55,4.93v11.14l8.55-4.93c1.42-.82,2.57-2.81,2.57-4.45v-5.2c0-1.64-1.15-2.3-2.57-1.48Z"/>
    <path class="cls-7" d="M50.54,369.28l-23.79,13.73c-.83.48-1.56,1.36-2.03,2.33v8.81c.47.43,1.2.47,2.03,0l23.79-13.74c1.42-.82,2.57-2.81,2.57-4.45v-5.2c0-1.64-1.15-2.3-2.57-1.48Z"/>
    <path class="cls-7" d="M69.93,124.26v5.2c0,1.64,1.15,2.3,2.57,1.48l23.79-13.73c1.42-.82,2.57-2.81,2.57-4.45v-5.2c0-1.64-1.15-2.3-2.57-1.48l-23.79,13.73c-1.42.82-2.57,2.81-2.57,4.45Z"/>
    <path class="cls-7" d="M434.61,193.5l-20.95,12.09c-1.42.82-2.57,2.81-2.57,4.45v5.2c0,1.64,1.15,2.3,2.57,1.48l20.95-12.09v-11.14Z"/>
    <g>
      <line class="cls-9" x1="26.83" y1="448.9" x2="434.41" y2="213.58"/>
      <path class="cls-9" d="M26.83,449.43c-.18,0-.36-.1-.46-.27-.15-.25-.06-.58.19-.73l407.58-235.32c.25-.15.58-.06.73.19.15.25.06.58-.19.73L27.1,449.36c-.08.05-.17.07-.27.07Z"/>
    </g>
  </g>
  <path id="Shadow" class="cls-9" d="M168.96,453.04c-1.26,0-3.14-.22-4.92-1.24l-38.62-22.3c-2.13-1.23-3.4-3.3-3.4-5.53,0-2.23,1.27-4.3,3.4-5.53l43.49-25.11c1.41-.81,3.11-1.24,4.92-1.24s3.51.43,4.92,1.24l38.62,22.3c2.13,1.23,3.4,3.3,3.4,5.53s-1.27,4.3-3.4,5.53l-43.49,25.11c-1.78,1.03-3.66,1.24-4.92,1.24Z"/>
  <path id="Shadow-2" data-name="Shadow" class="cls-9" d="M318.91,442.67c26.65,15.39,69.87,15.39,96.52,0,26.65-15.39,26.65-40.34,0-55.73-26.65-15.39-69.87-15.39-96.52,0-26.65,15.39-26.65,40.34,0,55.73Z"/>
  <g id="QR_Code-2" data-name="QR_Code">
    <path id="Shadow-3" data-name="Shadow" class="cls-13" d="M230.32,15.45c-.02-.15-.04-.3-.07-.44-.02-.1-.04-.2-.07-.3,0-.02,0-.04-.02-.07-.02-.07-.04-.14-.07-.2-.01-.04-.02-.08-.04-.11-.03-.08-.06-.15-.1-.22-.08-.17-.17-.31-.28-.44-.04-.06-.09-.11-.14-.16-.05-.06-.1-.11-.16-.15-.08-.07-.17-.13-.27-.19-.05-.03-.1-.06-.16-.09-.01-.02-.03-.02-.04-.02-.77-.37-1.8-.27-2.92.38L76.53,99.69c-1.21.7-2.3,1.89-3.08,3.26-.11.18-.21.37-.29.56-.08.15-.15.3-.22.45-.09.19-.17.38-.24.58-.08.2-.14.4-.2.6-.04.15-.08.29-.11.44-.02.03-.03.07-.03.1-.03.13-.06.26-.08.39-.02.09-.03.17-.04.26-.02.12-.03.23-.04.35-.02.19-.03.38-.03.56v263.02c0,.16.01.3.02.45.01.13.03.26.05.39.02.14.05.28.09.41.02.07.04.14.06.2.03.09.06.18.1.26.13.31.31.56.52.77l.16.16s.01,0,.02.01c.03.02.07.05.11.07.06.03.12.06.16.09,0,.01.03.01.04.02.17.09.36.17.56.22.08.02.15.03.23.04.09.01.19.02.29.02.59,0,1.25-.2,1.95-.6l149.45-86.25c2.41-1.39,4.36-4.77,4.36-7.55V15.96c0-.18-.01-.35-.02-.51Z"/>
    <g id="Sign">
      <path class="cls-14" d="M239.7,20.79c-.02-.15-.04-.3-.07-.44-.02-.1-.04-.2-.07-.3,0-.02-.01-.04-.02-.07-.02-.07-.04-.14-.07-.2-.01-.04-.02-.08-.04-.11-.03-.08-.06-.15-.1-.22-.08-.17-.17-.31-.28-.44-.04-.06-.09-.11-.14-.16-.05-.06-.1-.11-.16-.15-.08-.07-.17-.13-.27-.19-.05-.03-.1-.06-.16-.09-.01-.02-.03-.02-.04-.02-.93-.55-3.27-1.9-3.95-2.29-.79-.45-1.86-.38-3.05.31L81.83,102.67c-1.21.7-2.3,1.89-3.09,3.26-.2.34-.38.69-.53,1.05-.15.36-.29.72-.4,1.08-.05.18-.1.36-.15.55-.12.54-.19,1.09-.19,1.61v263.02c0,.13,0,.26.01.38s.02.24.04.35c.02.12.04.23.06.33.02.11.04.21.08.31.09.27.2.5.33.71.14.21.3.4.49.54.08.07.17.13.26.18.17.1.43.25.75.43.39.23.85.5,1.32.77.48.27.96.55,1.36.78.14.08.27.16.38.22,0,0,0,0,.02.01.03.02.07.05.11.07.06.03.12.06.16.09,0,.01.03.01.04.02.17.09.36.17.56.22.08.02.15.03.23.04.09,0,.19.02.29.02.59,0,1.25-.2,1.95-.6l149.45-86.25c2.41-1.39,4.36-4.77,4.36-7.55V21.3c0-.18-.01-.35-.02-.51ZM105.48,109.21c-.02-.1-.03-.2-.04-.31-.01-.13-.01-.26-.01-.4,0-2.82,1.97-6.25,4.42-7.66.1-.06.2-.11.31-.16.25-.13.5-.21.74-.29.05,0,.09-.03.14-.04.1.38.17.8.17,1.28,0,2.81-1.98,6.24-4.42,7.65-.42.24-.82.4-1.2.5-.05-.18-.09-.37-.11-.57ZM205.08,50.97c0-2.82,1.97-6.25,4.41-7.66.13-.08.26-.14.39-.2.08-.04.15-.07.22-.1.1-.04.2-.08.3-.11.1-.03.19-.04.29-.07.1.37.16.79.16,1.26,0,2.82-1.97,6.25-4.42,7.66-.41.24-.81.4-1.19.49-.1-.37-.16-.8-.16-1.27Z"/>
      <path class="cls-2" d="M81.55,112.58v263.02c0,1.24.38,2.14,1.02,2.65-.95-.55-3.17-1.83-3.84-2.21-.79-.45-1.28-1.42-1.28-2.81V110.22c0-1.39.49-2.92,1.28-4.29l4.09,2.36h0c-.79,1.37-1.28,2.9-1.28,4.3Z"/>
      <path class="cls-6" d="M239.7,20.79c-.02-.15-.04-.3-.07-.44-.02-.1-.04-.2-.07-.3,0-.02-.01-.04-.02-.07-.02-.07-.04-.14-.07-.2-.01-.04-.02-.08-.04-.11-.03-.08-.06-.15-.1-.22-.08-.17-.17-.31-.28-.44-.04-.06-.09-.11-.14-.16-.05-.06-.1-.11-.16-.15-.08-.07-.17-.13-.27-.19-.05-.03-.1-.06-.16-.09-.01-.02-.03-.02-.04-.02-.77-.37-1.8-.27-2.92.38L85.91,105.03c-1.21.7-2.3,1.89-3.08,3.26-.11.18-.21.37-.29.56-.08.15-.15.3-.22.45-.09.19-.17.38-.24.58-.08.2-.14.4-.2.6-.04.15-.08.29-.11.44-.02.03-.03.07-.03.1-.03.13-.06.26-.08.39-.02.09-.03.17-.04.26-.02.12-.03.23-.04.35-.02.19-.03.38-.03.56v263.02c0,.16,0,.3.02.45.01.13.03.26.05.39.02.14.05.28.09.41.02.07.04.14.06.2.03.09.06.18.1.26.13.31.31.56.52.77l.16.16s0,0,.02.01c.03.02.07.05.11.07.06.03.12.06.16.09,0,.01.03.01.04.02.17.09.36.17.56.22.08.02.15.03.23.04.09,0,.19.02.29.02.59,0,1.25-.2,1.95-.6l149.45-86.25c2.41-1.39,4.36-4.77,4.36-7.55V21.3c0-.18-.01-.35-.02-.51ZM105.48,109.21c-.02-.1-.03-.2-.04-.31-.01-.13-.01-.26-.01-.4,0-2.82,1.97-6.25,4.42-7.66.1-.06.2-.11.31-.16.25-.13.5-.21.74-.29.05,0,.09-.03.14-.04.1.38.17.8.17,1.28,0,2.81-1.98,6.24-4.42,7.65-.42.24-.82.4-1.2.5-.05-.18-.09-.37-.11-.57ZM205.08,50.97c0-2.82,1.97-6.25,4.41-7.66.13-.08.26-.14.39-.2.08-.04.15-.07.22-.1.1-.04.2-.08.3-.11.1-.03.19-.04.29-.07.1.37.16.79.16,1.26,0,2.82-1.97,6.25-4.42,7.66-.41.24-.81.4-1.19.49-.1-.37-.16-.8-.16-1.27Z"/>
      <polygon class="cls-5" points="84.1 327.63 237.17 239.25 237.17 55.7 84.1 144.07 84.1 327.63"/>
      <g>
        <path class="cls-2" d="M110.16,100.68c.25-.13.5-.22.74-.29-.24.07-.48.16-.74.29Z"/>
        <path class="cls-2" d="M114.27,103.4c0,2.81-1.98,6.24-4.42,7.65-2.04,1.17-3.74.58-4.26-1.27.38-.1.78-.26,1.2-.5,2.44-1.41,4.42-4.84,4.42-7.65,0-.48-.07-.9-.17-1.28-.05.01-.1.03-.14.04,1.94-.58,3.37.6,3.37,3.01Z"/>
      </g>
      <g>
        <path class="cls-2" d="M210.69,42.82s0,0,0,.01c-.1.02-.19.03-.29.07.1-.03.2-.06.29-.08Z"/>
        <path class="cls-2" d="M213.91,45.86c0,2.82-1.97,6.25-4.42,7.66-2.03,1.17-3.73.57-4.25-1.28.38-.09.78-.25,1.19-.49,2.45-1.41,4.42-4.84,4.42-7.66,0-.47-.06-.89-.16-1.26,1.86-.47,3.22.69,3.22,3.03Z"/>
      </g>
    </g>
    <g>
      <g>
        <path class="cls-1" d="M104.38,186.85c-.6,0-1.09-.49-1.09-1.09v-36.59c0-.39.21-.74.54-.94l27.5-15.88c.52-.3,1.18-.12,1.48.4.3.52.12,1.18-.4,1.48l-26.96,15.56v35.96c0,.6-.49,1.09-1.09,1.09Z"/>
        <path class="cls-1" d="M104.38,300.13c-.19,0-.37-.05-.54-.15-.34-.19-.54-.55-.54-.94v-36.59c0-.6.49-1.08,1.09-1.08s1.09.49,1.09,1.08v34.71l25.87-14.94c.52-.3,1.18-.12,1.48.4.3.52.12,1.18-.4,1.48l-27.5,15.88c-.17.1-.35.15-.54.15Z"/>
        <path class="cls-1" d="M216.89,121.89c-.6,0-1.08-.49-1.08-1.08v-34.71l-25.87,14.93c-.52.3-1.18.12-1.48-.4-.3-.52-.12-1.18.4-1.48l27.49-15.87c.34-.19.75-.19,1.08,0,.34.19.54.55.54.94v36.59c0,.6-.49,1.08-1.09,1.08Z"/>
        <path class="cls-1" d="M189.4,251.05c-.38,0-.74-.19-.94-.54-.3-.52-.12-1.18.4-1.48l26.95-15.56v-35.96c0-.6.49-1.08,1.08-1.08s1.09.49,1.09,1.08v36.59c0,.39-.21.74-.54.94l-27.49,15.87c-.17.1-.36.15-.54.15Z"/>
      </g>
      <path class="cls-2" d="M151.25,209.59s0-.02,0-.02c0,0-.01,0-.02,0v.02h.02ZM147.52,166.8s-.01,0-.02,0v.02s.01,0,.02,0v-.02ZM199.96,211.32c2.49-1.44,4.92-2.84,7.38-4.26v-19.82c-.08,0-.11,0-.14.01-2.3,1.32-4.61,2.65-6.91,3.97-.35.2-.37.49-.37.84,0,2.9,0,5.8,0,8.71,0,.48.11.58.47.36.9-.54,1.79-1.02,2.69-1.57.42-.26.6-.21.58.39-.03,1.21-.03,2.41,0,3.58.01.56-.15.79-.55,1.01-.91.5-1.83,1.06-2.74,1.57-.33.18-.46.42-.45.85.01,1.45,0,2.9,0,4.35-1.3.75-2.48,1.43-3.74,2.16v-24.87c-.99.57-1.9,1.11-2.81,1.62-1.11.62-.94.74-.96-.73,0-1.2,0-2.42,0-3.69-1.3.75-2.52,1.45-3.73,2.16v-5c-1.03.52-1.99,1.12-3.01,1.69q-.73.42-.73-.52c0-1,0-2,0-3q0-1.03.78-1.48c.96-.56,1.93-1.11,2.92-1.69v-4.98c-1.09.63-2.13,1.21-3.21,1.86-.38.23-.52.14-.5-.38.02-1.11,0-2.2,0-3.3q0-1.01.79-1.47c.96-.56,1.93-1.11,2.95-1.7,0-1.54-.02-2.96,0-4.41,0-.55-.16-.56-.52-.34-.91.55-1.83,1.04-2.74,1.6-.39.24-.5.11-.49-.39.02-1.23,0-2.43.01-3.67,0-.52-.13-.59-.51-.36-.91.56-1.83,1.09-2.74,1.58-.4.22-.5.48-.49.97.02,1.23,0,2.49,0,3.73,0,.38-.07.63-.4.81-1.11.61-2.22,1.25-3.33,1.88,0-7.82,0-15.64,0-23.45q0-1.42-1.08-.79c-.87.5-1.74,1-2.62,1.51v-4.97c1.1-.63,2.15-1.26,3.21-1.84.39-.21.5-.46.5-.96-.01-2.87-.01-5.75,0-8.63,0-.54-.12-.67-.53-.42-.84.52-1.68.94-2.52,1.48-.53.34-.73.29-.71-.5.04-2.75,0-5.46.03-8.21,0-.65-.11-.82-.63-.51-3.33,1.95-6.66,3.87-9.98,5.77-.5.28-.66.55-.65,1.23.03,2.74,0,5.51.02,8.25,0,.69-.16.98-.66,1.24-.86.45-1.72.96-2.58,1.48-.38.23-.52.14-.51-.38.02-1.18-.01-2.33.01-3.52.01-.59-.1-.77-.58-.48-.88.55-1.76,1.05-2.63,1.52-.4.22-.55.46-.54,1.01.03,1.2.02,2.43,0,3.66,0,.21-.19.7-.3.77-1.13.69-2.26,1.33-3.45,2.02v-9.93c-1.2.69-2.33,1.33-3.45,2.02-.1.06-.26.51-.27.7-.02,1.26-.03,2.5,0,3.73,0,.51-.13.76-.51.97-.91.5-1.83,1.06-2.74,1.57-.38.21-.52.46-.51.97.02,1.08,0,2.19,0,3.29q0,1.01.79.56c2.05-1.18,4.1-2.37,6.14-3.53.18-.1.51-.07.51.06.04,1.48.02,2.99.02,4.58-1.11.64-2.14,1.26-3.18,1.83-.43.24-.57.51-.56,1.08.03,1.42,0,2.86,0,4.29,1.24-.71,2.48-1.41,3.73-2.12v4.97c-1.28.74-2.5,1.44-3.73,2.15,0,1.65,0,3.3,0,4.95,1.07-.61,2.14-1.21,3.21-1.85.4-.24.54-.18.53.39-.03,1.44-.01,2.86-.01,4.29,1.29-.72,2.59-1.45,3.88-2.17-.01,1.66-.16,3.35-.05,4.95,2.3-1.33,4.56-2.64,6.86-3.94.18-.1.52-.07.52.06.04,1.48.02,2.99.02,4.59-3.57,2.06-7.12,4.1-10.68,6.17-.21.12-.53.16-.54.68-.01,1.51,0,3.01,0,4.61,1.1-.64,2.14-1.21,3.17-1.84.45-.27.62-.2.6.43-.03,1.19.01,2.33-.02,3.52-.02.63.15.69.6.43,2.1-1.24,4.2-2.43,6.31-3.66.42-.25.59-.19.57.41-.03,1.19-.03,2.36,0,3.51.01.59-.17.85-.58,1.08-.9.49-1.79,1.05-2.69,1.54-.36.2-.48.43-.47.9.02,1.13-.02,2.3.01,3.43.02.67-.12,1.03-.67,1.31-.84.43-1.68.99-2.52,1.43-.44.23-.56.5-.56,1.07,0,3.12.06,6.14-.03,9.32-1.28.74-2.51,1.45-3.74,2.16,0,1.43.02,2.85,0,4.29,0,.52.12.6.5.37,1.06-.64,2.11-1.23,3.22-1.87.15,2.99,0,6.15.07,9.2,0,.58-.14.83-.56,1.07-1.07.59-2.15,1.23-3.22,1.86,0,1.41-.02,2.83.01,4.21.02.63-.17.87-.6,1.1-.82.44-1.65.99-2.47,1.39-.58.29-.71.65-.69,1.35.03,1.31,0,2.67-.02,4,1.07-.6,2.14-1.17,3.22-1.81.44-.27.56-.14.55.43-.02,2.81-.02,5.62,0,8.41,0,.66-.12.95-.64,1.24-2.29,1.31-4.55,2.55-6.85,3.99,0,1.45.02,2.82,0,4.22,0,.54.12.67.53.42.9-.55,1.79-1.02,2.69-1.57.4-.24.56-.18.54.39-.03,1.21-.03,2.41,0,3.58.01.55-.13.8-.54,1.02-.91.5-1.83,1.03-2.74,1.59-.16.1-.44.51-.45.66-.03,1.5-.02,2.98-.02,4.51,2.51-1.45,4.97-2.87,7.47-4.31,0-1.42.02-2.8,0-4.14-.01-.55.1-.85.55-1.09.91-.49,1.83-1.03,2.74-1.58.39-.24.51-.12.5.39-.02,1.23,0,2.44-.01,3.66,0,.45.07.63.45.4,2.19-1.29,4.39-2.55,6.58-3.8.34-.19.45-.43.44-.86-.01-1.21.01-2.44,0-3.65,0-.53.12-.81.53-1.04.9-.49,1.79-1,2.69-1.55.43-.26.53-.08.52.44-.02,1.13.03,2.23-.02,3.37-.03.73.16.81.68.5,3.53-2.11,7.05-4.01,10.58-6.17,0-4.68.01-9.34,0-14.01,0-.64.1-.98.63-1.25.84-.43,1.68-.98,2.52-1.43.44-.23.62-.5.6-1.12-.03-1.2,0-2.44-.01-3.65,0-.48.12-.71.48-.9.93-.51,1.87-1.05,2.8-1.62.37-.23.47-.09.46.37-.01,1.28,0,2.53,0,3.81,0,.45.12.54.45.34,1.11-.67,2.17-1.25,3.3-1.91,0,3.26,0,6.38,0,9.49,0,.43-.19.57-.43.71-.95.55-1.9,1.08-2.85,1.65-.36.22-.47.1-.47-.37.02-1.23,0-2.43.01-3.66,0-.49-.08-.66-.48-.41-.91.56-1.83,1.09-2.74,1.58-.43.23-.53.52-.52,1.03.02,1.11.04,2.22,0,3.37-.03.71.13.86.67.52,1-.63,2-1.17,3.07-1.79v4.91c1.28-.74,2.49-1.44,3.74-2.16,0-1.26,0-2.45,0-3.65,0-1.4-.16-1.17.92-1.79,1.99-1.16,3.99-2.33,5.98-3.44.49-.28.63-.57.61-1.19-.15-5.51.81-4.3-3.32-2.26-.16.08-.43-.01-.44-.16-.03-1.46-.02-2.95-.02-4.49,2.26-1.41,4.48-2.6,6.74-3.94q.77-.44.77-1.5c0-1.35-.03-2.6.04-4ZM151.26,154.7c0-1.65,0-3.29,0-5.05,1.25-.71,2.44-1.47,3.68-2.22.02-1.44.09-2.91.09-4.34-.03-.42.1-.67.44-.86.95-.53,1.9-1.08,2.85-1.65.34-.2.44-.07.44.36,0,4.59,0,9.17,0,13.75,0,.48-.13.71-.49.91-.91.5-1.83,1.03-2.74,1.59-.38.23-.52.15-.51-.37.01-1.46.03-2.85-.02-4.29-1.27.74-2.51,1.45-3.74,2.16ZM158.19,165.63c-1.01.57-2.03,1.19-3.04,1.78-.04-.17-.11-.33-.11-.53-.01-1.26,0-2.53-.01-3.78,0-.46.09-.7.46-.9.93-.51,1.86-1.04,2.79-1.61.39-.24.5-.08.49.41-.02,1.2-.03,2.4,0,3.57.02.6-.17.83-.58,1.06ZM185.34,189.88c1.11-.62,2.21-1.26,3.32-1.89v4.94c-1.19.69-2.33,1.35-3.47,1.98-.09.05-.24-.15-.24-.31-.02-1.33,0-2.67-.02-4,0-.4.14-.58.4-.72ZM177.85,174.26c.97-.57,1.94-1.11,2.91-1.69.32-.19.46-.13.45.33-.01,1.28-.01,2.54,0,3.8,0,.45-.13.68-.46.86-.93.52-1.86,1.05-2.8,1.62-.4.24-.49.07-.49-.42.01-1.39,0-2.76-.02-4.14.13-.12.27-.28.4-.35ZM177.47,185c0-.46.15-.68.46-.85.48-.26.95-.54,1.43-.82.48-.27.95-.54,1.43-.83.31-.19.42-.09.42.32-.01,1.3-.01,2.59,0,3.88,0,.43-.15.62-.44.79-.95.54-1.9,1.08-2.85,1.65-.33.2-.45.11-.45-.34.01-1.28.01-2.54,0-3.8ZM173.74,156.05c0,.44-.1.67-.44.85-.97.54-1.93,1.1-2.9,1.67-.26.15-.41.15-.4-.25.02-1.51.02-3.01.03-4.51,1.07-.62,2.14-1.22,3.21-1.86.38-.23.51-.13.5.38-.02,1.25-.02,2.49,0,3.72ZM166.23,160.3c0,.49-.1.76-.5.97-.91.5-1.83,1.03-2.74,1.58-.39.23-.51.11-.5-.39.01-2.88,0-5.76,0-8.63,0-.32-.03-.64.34-.85,2.36-1.36,4.71-2.72,7.18-4.15v4.96c-1.05.62-2.11,1.27-3.16,1.84-.52.28-.65.6-.64,1.24.03,1.12,0,2.29.02,3.43ZM162.49,138.85c0-.51.14-.76.51-.97.78-.43,1.57-.9,2.36-1.35.97-.56.86-.36.87-1.69,0-1.03.02-2.06,0-3.07-.01-.53.13-.81.54-1.03.89-.49,1.79-1.01,2.69-1.55.42-.26.58-.18.57.42-.04,1.46,0,2.78,0,4.24,1.27-.73,2.46-1.42,3.73-2.15,0,1.6.01,3.09-.02,4.61,0,.13-.31.53-.47.62-2.31,1.36-4.62,2.65-6.94,4.14-.02,1.44-.08,2.91-.07,4.33.03.46-.12.71-.48.91-.91.5-1.83,1.03-2.74,1.58-.37.23-.52.16-.52-.36.01-2.91.01-5.81,0-8.7ZM155.07,207.37c1.15-.66,2.29-1.33,3.43-1.96.09-.05.25.14.25.29.02,1.35.02,2.71,0,4.08,0,.15-.17.51-.27.56-1.12.68-2.25,1.32-3.41,1.99v-4.96ZM158.77,249.46c0,.48-.15.72-.49.92-.93.52-1.86,1.06-2.79,1.61-.33.19-.46.12-.45-.33.02-.64,0-1.27,0-1.9,0-.66-.03-1.3.02-1.98.01-.19.24-.62.37-.71.97-.6,1.94-1.13,2.9-1.7.34-.2.44-.05.44.37,0,1.25-.01,2.49,0,3.73ZM158.75,234.5c0,.21-.19.69-.3.76-1.11.68-2.22,1.31-3.42,2v-3.39c0-1.58,0-1.59,1.18-2.26.89-.51,1.78-.99,2.67-1.49-.25,1.54-.05,2.9-.13,4.38ZM161.84,228.38c-.98.52-1.97,1.15-2.95,1.73-.21-1.33-.11-2.87-.12-4.34,0-.47-.11-.58-.48-.37-.93.56-1.86,1.1-2.8,1.6-.16.08-.44,0-.44-.15-.03-1.46-.02-2.95-.02-4.55.99-.57,1.94-1.12,2.88-1.67.93-.54.84-.37.84-1.64,0-2.96,0-5.84,0-8.81.85-.49,1.64-.95,2.44-1.41q1.29-.74,1.29.97c0,5.77,0,11.55.01,17.32,0,.69-.13,1.01-.67,1.29ZM169.45,238.95c-4.09,2.12-3.11,3.02-3.22-2.5,0-.48-.11-.57-.47-.36-4.2,2.27-3.09,2.95-3.27-2.41-.01-.57.14-.83.57-1.07,2.31-1.31,4.63-2.66,6.94-4,0,3.09-.01,6.18,0,9.26,0,.57-.12.85-.56,1.08ZM173.73,226.44c-1.26.73-2.48,1.43-3.71,2.14,0-3.13,0-6.26-.02-9.39,0-.41.12-.62.42-.79.97-.54,1.94-1.11,2.9-1.67.26-.15.41-.16.41.25,0,3.12,0,6.23,0,9.46ZM173.74,210.81c0,.53-.1.8-.52,1.02-.9.48-1.79,1-2.69,1.55-.4.24-.55.19-.54-.38.03-1.21,0-2.38.02-3.59.01-.54-.1-.67-.52-.42-.91.56-1.83,1.05-2.74,1.6-.37.23-.53.16-.52-.36.02-1.25.02-2.5,0-3.73,0-.49.15-.71.49-.9.95-.53,1.9-1.1,2.85-1.64.29-.16.44-.34.44-.78-.01-1.43,0-2.87,0-4.4-2.31,1.2-4.61,2.62-6.91,3.95-.45.27-.61.19-.6-.44.03-1.21.02-2.4,0-3.59,0-.5.13-.77.51-.98.9-.49,1.79-1.05,2.69-1.54.39-.21.55-.43.54-1-.06-6.4.07-12.9-.06-19.25-1.06.61-2.08,1.17-3.1,1.8-.46.28-.6.16-.59-.45.03-1.38,0-2.73,0-4.19,2.51-1.45,4.97-2.87,7.5-4.33,0-1.4,0-2.71,0-4.02q0-.98.74-1.41c.82-.48,1.65-.93,2.47-1.44.42-.26.53-.12.52.42-.02,3.11,0,6.14,0,9.25,1.27-.74,2.5-1.45,3.73-2.16-.01,1.73-.02,3.45-.03,5.18-.12.03-.23.03-.35.09-2.35,1.4-4.7,2.61-7.05,4.13v4.92c.98-.57,1.95-1.12,2.91-1.68q.78-.45.78.57c0,4.66,0,9.29,0,13.96,2.32-1.34,4.6-2.64,6.92-4.01.42-.25.58-.2.56.41-.03,1.16-.03,2.31,0,3.44.02.62-.11.9-.61,1.18-2.31,1.29-4.56,2.62-6.88,3.95,0,3.1-.01,6.17,0,9.25ZM188.68,212.86c-3.56,2.05-7.07,4.07-10.62,6.15-.45.26-.59.19-.59-.43.02-4.47.02-8.94,0-13.39,0-.67.16-.9.63-1.17,3.33-1.9,6.66-3.82,9.99-5.77.49-.28.61-.18.61.47-.02,4.74,0,9.41-.01,14.14ZM147.52,156.85s-.01,0-.02,0v.02s.01,0,.02,0c0,0,0-.01,0-.02ZM125.58,229.37c-.37.22-.52.17-.51-.35.02-2.91.01-5.8,0-8.69,0-.5.13-.76.51-.97,2.17-1.24,4.34-2.49,6.52-3.77.39-.23.49-.09.49.4-.01,1.46,0,2.9.01,4.35,2.29-1.32,4.58-2.66,6.86-3.96.44-.25.62-.48.6-1.1-.03-1.38-.02-2.79-.02-4.19-2.49,1.19-4.97,2.91-7.47,4.18,0-1.48-.01-2.88,0-4.3,0-.48-.12-.58-.47-.37-.91.55-1.83,1.04-2.74,1.6-.41.25-.53.14-.53-.41.02-3.11,0-6.13,0-9.25-2.31,1.34-4.59,2.63-6.89,3.99-.49.29-.64.17-.62-.48.03-1.16.03-2.31,0-3.44-.02-.6.13-.86.59-1.12,3.56-2.07,7.1-4.01,10.65-6.19,0-3.2,0-6.32,0-9.44,0-.41-.16-.39-.42-.24-.97.57-1.94,1.13-2.91,1.67-.31.17-.42.4-.41.8.02,1.5,0,2.9,0,4.43-.88.51-1.68.97-2.48,1.43q-1.29.74-1.29-.98v-3.26c-1.1.63-2.1,1.25-3.1,1.78-.52.27-.65.6-.64,1.25,0,3.05.06,6.02-.03,9.12-2.48,1.43-4.91,2.83-7.37,4.26-.12,1.54,0,2.89-.06,4.39-.01.58.16.61.55.37.91-.56,1.83-1.05,2.74-1.6.33-.2.46-.1.45.34-.01,1.25-.02,2.5,0,3.73,0,.53-.17.76-.53.96-.88.49-1.76,1.04-2.63,1.5-.46.24-.59.53-.59,1.13.05,3.04-.05,6.14.05,9.15,1.1-.63,2.14-1.25,3.23-1.85.15-.08.43-.03.43.09.03,1.51.02,3.04.02,4.66-1.26.73-2.46,1.42-3.66,2.11v4.98c1.1-.63,2.14-1.22,3.18-1.85.39-.24.51-.13.5.38-.02,1.25,0,2.49,0,3.74,0,.43.11.55.45.35.95-.57,1.9-1.12,2.85-1.65.34-.19.44-.45.44-.87,0-1.44-.04-2.88.03-4.36,1.25-.72,2.44-1.41,3.66-2.12.06,1.4.03,2.81.02,4.25,0,.49.09.66.49.41.93-.57,1.87-1.11,2.8-1.62.39-.21.51-.46.5-.96-.02-1.42,0-2.86,0-4.3-1.09.62-2.18,1.22-3.27,1.87ZM121.34,231.81c-1.19.69-2.31,1.35-3.44,1.97-.1.05-.27-.11-.27-.25-.02-1.47-.01-2.95-.01-4.54,1.19-.69,2.29-1.33,3.38-1.93.12-.06.32.07.33.22.02,1.47.01,2.95.01,4.53ZM124.57,214.97c-.75.41-1.5.85-2.25,1.29-1.1.65-.97.39-.98,1.83,0,1.03-.01,2.05,0,3.07,0,.46-.12.72-.48.92-.93.52-1.86,1.05-2.79,1.61-.36.22-.47.09-.47-.38.01-1.47,0-2.92,0-4.39,0-1.39.01-2.78,0-4.16,0-.54.09-.84.55-1.09,2.14-1.21,4.27-2.45,6.41-3.7.37-.22.53-.16.52.36-.02,1.23-.02,2.45,0,3.65,0,.51-.14.76-.51.97ZM181.92,151.92c8.49-4.9,16.97-9.8,25.46-14.7,0-11.3,0-22.58,0-33.88q0-1.03-.77-.59c-8.23,4.75-16.46,9.5-24.69,14.25-.72.41-.72.42-.72,1.37,0,11,0,22,0,33q0,.96.71.55ZM185.58,119.87c5.8-3.33,11.59-6.67,17.39-10.04.58-.34.7-.14.69.57-.02,3.86-.01,7.71-.01,11.56,0,3.85-.01,7.71.01,11.55,0,.71-.17.99-.69,1.29-5.8,3.32-11.59,6.67-17.39,10.04-.49.28-.66.23-.66-.47.02-7.76.02-15.52,0-23.26,0-.69.16-.96.65-1.24ZM114.54,190.84c8.27-4.79,16.53-9.56,24.8-14.33q.71-.41.71-1.37c0-11,0-22,0-33q0-.95-.72-.54c-8.48,4.93-16.95,9.72-25.43,14.72-.09,11.38,0,22.65-.04,34.01,0,.7.15.81.67.5ZM117.6,159.91c0-.61.15-.88.6-1.14,5.85-3.36,11.7-6.74,17.55-10.13.48-.28.58-.09.57.49-.01,3.93,0,7.85,0,11.78,0,3.85-.01,7.71.01,11.55,0,.65-.14.91-.62,1.18-5.83,3.35-11.66,6.72-17.5,10.1-.44.26-.61.2-.61-.42.01-7.81.01-15.61,0-23.4ZM139.39,231.34c-8.5,4.93-16.99,9.82-25.48,14.73-.09,11.4,0,22.68-.04,34.05,0,.71.14.81.67.51,8.51-4.94,17.01-9.83,25.52-14.75,0-11.35,0-22.67.01-34.03,0-.71-.14-.82-.67-.51ZM135.69,263.42c-5.81,3.34-11.63,6.7-17.44,10.07-.51.3-.65.16-.65-.5.01-7.74.01-15.47,0-23.18,0-.69.13-1,.67-1.3,2.93-1.66,5.85-3.36,8.78-5.05,2.89-1.67,5.78-3.32,8.67-5.02.49-.29.62-.16.61.48-.01,7.79-.02,15.56,0,23.33,0,.67-.18.92-.64,1.18ZM207.35,147.18c-1.25.72-2.45,1.41-3.69,2.13,0-1.5,0-2.91,0-4.33,0-.47-.11-.59-.48-.37-.93.56-1.87,1.1-2.8,1.61-.37.2-.47.47-.47.92.01,1.24.02,2.48,0,3.73,0,.48.12.57.48.35.91-.55,1.83-1.04,2.74-1.6.42-.26.53-.12.52.42-.02,1.21-.03,2.41,0,3.58.01.56-.15.79-.55,1.01-2.33,1.32-4.58,2.64-6.92,3.98,0,1.61-.01,3.14.02,4.65,0,.13.27.19.42.11.86-.46,1.72-.98,2.58-1.47q.71-.41.71.57c0,2.75,0,5.51,0,8.27,0,.54.13.66.54.41.88-.54,1.76-1,2.63-1.54.42-.26.59-.18.58.41-.03,1.11-.04,2.22,0,3.29.03.7-.12,1.04-.69,1.36-2.27,1.23-4.51,2.66-6.78,3.85,0-3.07-.01-6.07.01-9.14,0-.61-.14-.73-.59-.44-.88.55-1.76,1.05-2.63,1.52-.42.23-.57.48-.57,1.07.05,3.06-.06,6.17.05,9.2,1.24-.75,2.43-1.37,3.66-1.99.06,1.63.09,3.17.07,4.86,1.08-.62,2.07-1.14,3.05-1.78.59-.38.71-.17.69.56-.04,1.17,0,2.29-.01,3.44,0,.42.09.57.44.36.95-.57,1.9-1.12,2.85-1.65.34-.19.45-.42.45-.85-.01-1.14,0-2.29,0-3.44q0-.95.72-1.37c.98-.57,1.96-1.13,2.95-1.7.17-4.89,0-9.62.07-14.46,0-.47-.15-.49-.47-.3-.91.54-1.83,1.04-2.74,1.6-.41.25-.54.11-.53-.42.02-1.21.02-2.4,0-3.58,0-.51.13-.76.51-.97.86-.47,1.72-1.02,2.58-1.47.48-.25.67-.52.66-1.22-.06-3.05.04-6.15-.05-9.18ZM147.51,206.76c0-1.21.02-2.42.02-3.63q0-1.42,1.07-2.04c.87-.5,1.74-1,2.63-1.52v-9.93c-1.22.7-2.4,1.38-3.58,2.07-.06.04-.12.15-.18.23.02.08.06.15.06.24,0,2.99,0,5.99,0,8.98,0,.44-.15.62-.43.78-.95.54-1.9,1.08-2.85,1.65-.36.22-.48.09-.47-.38.02-1.23,0-2.43.01-3.66,0-.5-.1-.63-.49-.4-2.16,1.26-4.31,2.51-6.47,3.74-.37.21-.52.44-.51.96.02,1.2.02,2.42,0,3.65,0,.51.12.62.5.39.91-.55,1.83-1.04,2.74-1.6.39-.23.51-.11.5.39-.01,1.46,0,2.91,0,4.36,2.48-1.53,4.96-2.9,7.45-4.3ZM147.45,191.97s0,0,0-.01c0,0,0,0,0,0h0ZM140.06,211.06s-.01,0-.02,0c0,0,0,.01,0,.02,0,0,.01,0,.02,0,0,0,0-.02,0-.02ZM204.23,218.86c.89-.48,1.79-1.04,2.69-1.53.36-.2.48-.44.47-.91-.02-1.26-.01-2.53,0-3.8,0-.41-.11-.5-.41-.32-.97.58-1.94,1.14-2.91,1.68-.36.2-.42.47-.42.87.01,1.21-.01,2.44.01,3.65.01.54-.14.8-.54,1.02-.89.49-1.79,1.04-2.69,1.53-.37.2-.52.43-.52.96.01,2.87.02,5.74,0,8.63,0,.57.16.6.55.37,1.06-.64,2.12-1.23,3.18-1.85,1.1-.63,2.19-1.28,3.29-1.89.32-.18.47-.37.46-.84-.02-1.26-.02-2.52,0-3.8,0-.5-.14-.55-.49-.34-.91.55-1.83,1.05-2.74,1.6-.38.23-.52.13-.51-.38.02-1.18.03-2.35,0-3.51-.01-.58.12-.89.58-1.14ZM143.78,223.84v.02s0,0,.01,0v-.02s0,0-.01,0ZM147.52,182.28c0-.16-.04-.3-.07-.49-1.12.65-2.22,1.29-3.31,1.91-.36.2-.36.5-.36.84,0,2.9.01,5.8,0,8.71,0,.58.17.6.55.37,1.04-.56,2.11-1.39,3.13-1.66.02-.2.07-.42.07-.6,0-3.03,0-6.05,0-9.07ZM147.46,191.96s0-.01,0-.01c0,0,0,0,0,0,0,0,0,0,0,0ZM151.24,224.5v.02s.01,0,.02,0v-.02s-.01,0-.02,0ZM150.78,219.79c-2.33,1.36-4.66,2.71-6.99,4.05,0,1.43.01,2.85-.02,4.29-.01.56.15.62.54.39,2.31-1.35,4.62-2.68,6.92-4.02,0-1.46,0-2.91.03-4.37,0-.5-.14-.54-.48-.34ZM139.67,191.25c-.98.58-1.97,1.15-2.95,1.71-.27.15-.4.34-.4.73,0,1.33.01,2.67,0,4.01,0,.44.15.45.44.28.49-.3.98-.57,1.48-.86.47-.27.95-.51,1.42-.84.14-.1.38-.52.38-.7.03-1.35.01-2.68.02-4.02,0-.36-.09-.47-.38-.3ZM117.22,194.28c-.98.52-1.97,1.1-2.95,1.7-.13.08-.37.48-.37.63-.03,1.49-.02,2.97-.02,4.56,1.19-.69,2.3-1.32,3.41-1.99.11-.06.3-.45.3-.61.02-1.35.03-2.69,0-4.01,0-.18-.24-.35-.37-.28ZM147.52,206.78s0-.02,0-.03c0,0-.01,0-.02,0,0,.01,0,.02,0,.03,0,0,.01,0,.02,0ZM151.24,169.65s.01,0,.02,0v-.02s-.01,0-.02,0c0,0,0,.01,0,.02ZM147.52,176.15c0,.42.08.58.43.37.97-.58,1.93-1.13,2.9-1.67.3-.17.42-.37.42-.79-.02-1.46-.02-2.94-.02-4.41-1.24.71-2.48,1.43-3.72,2.14,0,1.45.01,2.9,0,4.36ZM139.63,181.31c-.97.57-1.93,1.13-2.9,1.67-.31.17-.42.41-.41.8,0,1.31,0,2.62,0,3.94,0,.39.12.43.4.27.98-.58,1.97-1.15,2.95-1.7.28-.16.39-.36.39-.73-.01-.65,0-1.31,0-1.97,0-.66,0-1.31,0-1.97,0-.41-.12-.49-.42-.31ZM132.58,225.33v.02s.01,0,.02,0c0,0,0-.01,0-.02,0,0-.01,0-.02,0ZM128.86,227.49h0s0,0,0,.01c0,0,.01,0,.02,0v-.02s-.01,0-.02,0c0,0,0,0,0,0ZM132.58,220.37s.01,0,.02,0c0,0,0-.01,0-.02,0,0-.01,0-.02,0v.02ZM128.87,222.51v4.96l3.72-2.15c0-1.65,0-3.3,0-4.96-1.22.7-2.43,1.4-3.72,2.15ZM147.51,161.83v.02s.01,0,.02,0v-.02s-.01,0-.02,0ZM144.19,158.76c-.31.17-.41.4-.41.8.01,1.26.02,2.51,0,3.79,0,.54.16.55.52.34,1.07-.64,2.14-1.24,3.21-1.85,0-1.65,0-3.3,0-4.96-1.11.63-2.21,1.27-3.32,1.88ZM147.51,171.78v.02s.01,0,.02,0v-.02s-.01,0-.02,0ZM144.29,168.67c-.38.21-.52.45-.51.96.02,1.21.02,2.43,0,3.66,0,.53.14.6.51.37,1.07-.65,2.15-1.25,3.22-1.88,0-1.65,0-3.3,0-4.96-1.07.62-2.15,1.25-3.22,1.84ZM192,151.07c-.97.57-1.94,1.13-2.9,1.67-.3.17-.43.38-.42.79.01,1.31,0,2.63.02,3.93,0,.17.17.38.26.32,1.13-.62,2.25-1.28,3.45-1.97,0-1.59,0-3.04,0-4.51,0-.4-.15-.4-.41-.25ZM147.48,236.61s.01,0,.02,0c0,0,0,0,0,0,0,0,0-.02,0-.02,0,0-.01,0-.02,0v.02ZM143.78,239.24c0,1.36,0,2.73.02,4.09,0,.14.18.29.28.23,1.13-.62,2.26-1.28,3.41-1.95v-5.01c-1.07.63-2.14,1.27-3.22,1.89-.25.14-.49.26-.48.74ZM184.58,205.29c-.49.23-.99.55-1.48.83-.49.28-.99.58-1.48.85-.26.14-.42.32-.41.72,0,1.33,0,2.69.02,4.01,0,.16.22.32.34.25,1-.54,2.01-1.12,3.01-1.74.12-.07.34-.49.34-.65.03-1.35.03-2.7,0-4.02,0-.16-.22-.31-.34-.25ZM146.94,217.04c.44-.24.61-.48.59-1.1-.03-1.38-.01-2.79-.01-4.19,1.24-.72,2.48-1.44,3.71-2.17v-4.94c-1.29.75-2.5,1.45-3.71,2.14,0,1.65-.01,3.3-.02,4.95-1.07.62-2.14,1.25-3.21,1.84-.42.23-.53.48-.52,1.01.02,1.41,0,2.85,0,4.28l-11.18,6.47c0,1.46,0,2.91-.03,4.38,0,.5.14.53.49.33,3.57-2.08,7.14-4.14,10.72-6.21,0-1.65.01-3.31.02-4.96,1.05-.61,2.1-1.26,3.15-1.83ZM189.32,137.7c3.53-2.06,7.04-4.07,10.56-6.11.1-4.77,0-9.39.05-14.13,0-.72-.16-.81-.68-.5-3.53,2.11-7.04,3.99-10.57,6.17,0,4.71.01,9.38-.01,14.1,0,.69.15.76.65.47ZM121.33,176.2c0,.56.12.69.56.43,1.7-1.01,3.4-1.98,5.1-2.96,1.66-.96,3.33-1.94,4.99-2.87.43-.24.61-.47.6-1.11-.02-4.5-.02-9.01,0-13.53,0-.54-.12-.65-.53-.41-3.4,1.98-6.8,3.94-10.2,5.89-.42.24-.53.51-.52,1.03.01,4.5.01,9.01,0,13.53ZM131.95,245.6c-3.53,2.07-7.04,4.08-10.57,6.12-.11,4.77,0,9.39-.05,14.12,0,.7.14.84.67.52,3.53-2.11,7.04-4,10.58-6.17,0-4.71-.01-9.38.01-14.09,0-.66-.12-.8-.64-.5Z"/>
    </g>
    <g>
      <path class="cls-15" d="M125.36,327.33c.03-.99.15-1.97.36-2.95.21-.98.51-1.9.92-2.76.4-.87.91-1.66,1.52-2.38s1.33-1.32,2.16-1.8c.82-.47,1.54-.71,2.14-.69.61.01,1.11.22,1.52.63.4.41.71.97.93,1.7.21.73.34,1.57.37,2.54.01.32.02.68.03,1.08,0,.4,0,.8,0,1.23s0,.84,0,1.24c0,.4-.01.77-.03,1.11-.03.96-.15,1.9-.34,2.84s-.48,1.83-.86,2.68l1.27,2.07c.03.07.05.13.05.21.01.17-.02.32-.09.47-.07.15-.16.25-.26.31l-1.6.93c-.2.1-.35.1-.45,0-.1-.1-.17-.19-.23-.26l-.54-.88c-.28.3-.58.58-.89.83-.31.25-.65.48-1.01.69-.83.48-1.55.71-2.16.7-.61-.01-1.11-.22-1.52-.62-.41-.4-.71-.96-.92-1.7-.21-.74-.33-1.58-.36-2.53-.01-.32-.02-.68-.03-1.08,0-.39,0-.8,0-1.23s0-.84,0-1.24c0-.4.01-.77.03-1.11ZM133,323.05c-.05-1.22-.31-2.04-.78-2.44-.48-.41-1.11-.38-1.9.07-.79.46-1.42,1.16-1.9,2.12-.48.96-.74,2.08-.78,3.35-.02.67-.03,1.41-.03,2.21s.01,1.53.03,2.17c.04,1.22.31,2.03.78,2.43.48.4,1.11.37,1.9-.08.79-.45,1.42-1.16,1.9-2.11.48-.95.74-2.06.78-3.34.02-.67.03-1.41.03-2.21s-.01-1.53-.03-2.17Z"/>
      <path class="cls-15" d="M142.33,310.76c1.41-.81,2.47-.92,3.2-.34.73.58,1.1,1.76,1.1,3.55,0,1.26-.19,2.45-.56,3.56-.38,1.11-.93,2.09-1.66,2.95l2.33,5.07c.03.08.05.17.05.26,0,.16-.04.31-.11.47-.07.15-.16.26-.26.32l-1.43.83c-.22.13-.39.14-.5.04-.11-.1-.18-.21-.23-.32l-2.21-4.78-2.24,1.29v6.05c0,.19-.04.38-.13.57-.09.19-.2.32-.32.39l-1.37.79c-.12.07-.23.06-.32-.02-.09-.09-.13-.23-.13-.42v-16.78c0-.19.05-.38.13-.57.09-.19.2-.32.32-.39l4.35-2.51ZM139.8,320.4l2.45-1.41c.64-.37,1.15-.84,1.54-1.41.38-.57.57-1.33.57-2.3s-.19-1.51-.57-1.62c-.38-.11-.89.02-1.54.39l-2.45,1.41v4.93Z"/>
      <path class="cls-15" d="M159.92,313.02c.02-.24.08-.44.18-.61.1-.17.2-.28.31-.35l1.37-.79c.12-.07.23-.07.33,0s.14.22.13.43c-.03.73-.15,1.51-.35,2.33-.2.82-.5,1.64-.9,2.44-.41.81-.92,1.57-1.54,2.29-.62.72-1.37,1.33-2.24,1.84-.78.45-1.46.67-2.06.66-.6,0-1.1-.21-1.52-.6-.42-.39-.74-.96-.97-1.71s-.37-1.63-.41-2.64c-.02-.64-.03-1.37-.03-2.16s.01-1.53.03-2.2c.04-1.07.18-2.11.41-3.12.23-1.02.55-1.96.97-2.83.42-.87.92-1.66,1.52-2.36.6-.7,1.28-1.27,2.06-1.72.88-.51,1.62-.76,2.24-.75.62,0,1.13.18,1.54.52.4.34.71.81.9,1.41.2.61.31,1.24.35,1.92.01.2-.03.4-.13.58-.1.18-.21.31-.33.38l-1.37.79c-.11.06-.22.07-.32.02-.1-.05-.16-.19-.18-.4-.03-.33-.11-.62-.24-.88-.12-.26-.29-.45-.51-.59-.21-.14-.48-.19-.81-.17-.33.03-.71.16-1.15.42-.44.25-.82.58-1.15.97-.33.39-.6.83-.82,1.3-.22.47-.39.99-.51,1.54-.12.55-.19,1.1-.21,1.65-.02.67-.03,1.41-.03,2.2s.01,1.52.03,2.16c.02.54.09,1.02.21,1.42.12.41.29.72.51.94.22.22.49.34.82.36.33.02.71-.1,1.15-.35.44-.25.82-.55,1.15-.91.33-.35.6-.72.82-1.11.22-.39.39-.78.51-1.18.12-.4.2-.78.24-1.15Z"/>
      <path class="cls-15" d="M163.8,305.14c.03-.99.16-1.97.36-2.95.21-.98.51-1.9.92-2.76.4-.87.91-1.66,1.52-2.38.61-.72,1.33-1.32,2.16-1.8.82-.47,1.53-.7,2.14-.69.61.01,1.11.22,1.52.63.41.41.71.97.93,1.7.21.73.34,1.57.37,2.54.01.32.02.68.03,1.08,0,.39,0,.8,0,1.23s0,.84,0,1.24c0,.4-.01.77-.03,1.11-.03.99-.15,1.97-.36,2.95-.21.98-.51,1.9-.92,2.76-.4.87-.91,1.66-1.53,2.38-.61.72-1.33,1.31-2.15,1.79-.83.48-1.55.71-2.16.7-.61-.01-1.11-.22-1.52-.62-.41-.4-.71-.97-.92-1.7-.21-.74-.33-1.58-.36-2.53-.01-.32-.02-.68-.03-1.08,0-.39,0-.8,0-1.23s0-.84,0-1.24c0-.4.01-.77.03-1.11ZM171.44,300.86c-.05-1.22-.31-2.03-.79-2.44-.48-.41-1.11-.38-1.9.07-.79.45-1.42,1.16-1.9,2.12-.48.96-.74,2.08-.78,3.35-.02.67-.03,1.41-.03,2.21s.01,1.53.03,2.17c.04,1.22.31,2.03.78,2.43.48.4,1.11.37,1.9-.08.79-.46,1.42-1.16,1.9-2.11.48-.95.74-2.06.79-3.34.02-.67.03-1.41.03-2.21s-.01-1.53-.03-2.17Z"/>
      <path class="cls-15" d="M180.56,288.68c.83-.48,1.55-.73,2.17-.74s1.12.17,1.54.55c.41.39.73.96.94,1.71.22.76.35,1.67.4,2.73.04,1.26.04,2.54,0,3.84-.04,1.12-.18,2.18-.4,3.19-.22,1.01-.53,1.94-.94,2.8-.41.86-.91,1.63-1.51,2.31-.6.68-1.31,1.26-2.12,1.73l-4.25,2.45c-.12.07-.23.06-.32-.02-.09-.09-.13-.23-.13-.42v-16.78c0-.19.04-.38.13-.57.09-.19.2-.32.32-.39l4.17-2.41ZM183.33,294.25c-.02-.54-.09-1.02-.21-1.42-.12-.41-.29-.72-.52-.95-.23-.22-.52-.33-.87-.33-.35,0-.76.14-1.25.42l-2.26,1.3v11.69l2.34-1.35c.46-.27.86-.6,1.2-.99.34-.39.62-.83.84-1.3.22-.48.4-.99.51-1.54.12-.55.19-1.11.21-1.68.04-1.31.04-2.59,0-3.84Z"/>
      <path class="cls-15" d="M195.68,294.89c.12-.07.23-.06.32.02.09.09.13.22.13.42v1.84c0,.19-.04.38-.13.57-.09.19-.2.32-.32.39l-7.41,4.28c-.12.07-.23.06-.32-.02-.09-.09-.13-.22-.13-.41v-16.78c0-.19.04-.38.13-.57.09-.19.2-.32.32-.39l7.27-4.2c.12-.07.23-.06.32.02.09.09.14.23.14.42v1.84c0,.19-.05.38-.14.57-.09.19-.2.32-.32.39l-5.45,3.15v4.13l5.08-2.93c.12-.07.23-.06.32.02.09.09.13.23.13.42v1.84c0,.19-.04.38-.13.57-.09.19-.2.32-.32.39l-5.08,2.93v4.31l5.58-3.22Z"/>
    </g>
  </g>
  <g id="Link-2" data-name="Link">
    <g id="Button">
      <g>
        <path class="cls-14" d="M166.37,448.49l-38.62-22.3c-1.43-.83-2.59-2.84-2.59-4.49v-5.25c0-1.65,1.16-3.67,2.59-4.49l43.49-25.11c1.43-.83,3.76-.83,5.19,0l38.62,22.3c1.43.83,2.59,2.84,2.59,4.49v5.25c0,1.65-1.16,3.67-2.59,4.49l-43.49,25.11c-1.43.83-3.76.83-5.19,0Z"/>
        <path class="cls-6" d="M171.23,386.85l-43.49,25.11c-1.43.83-1.43,2.17,0,3l38.62,22.3c1.43.83,3.76.83,5.19,0l43.49-25.11c1.43-.83,1.43-2.17,0-3l-38.62-22.3c-1.43-.83-3.76-.83-5.19,0Z"/>
        <path class="cls-2" d="M168.96,437.87v11.23c-.94,0-1.88-.2-2.6-.61l-38.62-22.3c-1.43-.82-2.6-2.84-2.6-4.49v-5.26c0-1.47.91-3.21,2.12-4.16-.94.82-.78,1.94.47,2.66l38.62,22.3c.72.42,1.66.62,2.6.62Z"/>
        <path class="cls-5" d="M165.32,413.85c.35-1.42,2.8-2.83,5.25-3.03l2.3-.19c1.27-.1,2.44-.78,2.63-1.52.18-.73-.7-1.24-1.97-1.14l-2.29.19c-2.46.2-4.9.94-6.89,2.09-1.98,1.14-3.27,2.56-3.62,3.97l-2.13,8.62c-.73,2.93,2.81,4.97,7.88,4.55l2.3-.19c2.46-.2,4.9-.94,6.89-2.09,1.98-1.14,3.26-2.56,3.62-3.97l1.01-4.08c.18-.73-.7-1.24-1.97-1.14-1.27.1-2.44.78-2.63,1.52l-1.01,4.07c-.35,1.42-2.79,2.83-5.25,3.03l-2.3.19c-2.53.21-4.3-.81-3.94-2.27l2.14-8.62h0ZM182.06,409.87l2.13-8.62c.35-1.42-.27-2.67-1.76-3.53-1.49-.86-3.66-1.22-6.11-1.02l-2.3.19c-2.46.2-4.9.94-6.88,2.09-1.98,1.14-3.27,2.56-3.62,3.97l-.92,3.72c-.18.73.7,1.24,1.97,1.14,1.27-.1,2.45-.78,2.63-1.52l.92-3.72c.18-.71.82-1.41,1.81-1.99.99-.57,2.21-.94,3.44-1.05l2.3-.19c1.23-.1,2.31.08,3.06.51.74.43,1.06,1.06.88,1.76l-2.14,8.62c-.35,1.42-2.79,2.83-5.25,3.03-1.27.1-2.44.78-2.63,1.51-.18.73.7,1.24,1.97,1.14,2.46-.2,4.9-.94,6.88-2.09,1.98-1.15,3.27-2.56,3.62-3.97h0ZM182.06,409.87"/>
      </g>
    </g>
    <g id="Speech_Bubble-2" data-name="Speech_Bubble">
      <g id="Speech_Bubble-3" data-name="Speech_Bubble">
        <path class="cls-9" d="M203.27,376.52v-5.25c0-1.65,1.16-3.67,2.59-4.49l66.16-38.22c1.43-.83,3.76-.83,5.19,0l38.62,22.3c1.43.83,2.59,2.84,2.59,4.49v5.25c0,1.65-1.16,3.67-2.59,4.49l-66.16,38.22c-1.43.83-3.76.83-5.19,0l-38.62-22.3c-1.43-.83-2.59-2.84-2.59-4.49Z"/>
        <path class="cls-7" d="M318.42,355.35v5.25c0,1.66-1.16,3.67-2.6,4.49l-66.16,38.21c-.72.42-1.66.62-2.6.62v-11.24c.94,0,1.88-.21,2.6-.62l66.16-38.21c1.26-.73,1.41-1.84.47-2.66,1.21.95,2.12,2.69,2.12,4.16Z"/>
        <path class="cls-7" d="M217.9,387.96l-.03-.02-.02.02-10.02,1.94v11.27h0c.02.77.75,1.47,1.64,1.23l23-6.04v-11.24l-14.58,2.83Z"/>
        <g>
          <path class="cls-15" d="M247.08,392.22c-.9,0-1.74-.2-2.36-.56l-12.17-7.03-23.18,6.09c-.08.02-.15.03-.23.03-.38,0-.63-.25-.74-.48-.07-.14-.2-.51.1-.88l10.09-12.82-12.47-7.2c-.54-.31-.84-.71-.84-1.1s.31-.79.84-1.1l66.16-38.22c.62-.36,1.46-.56,2.36-.56s1.74.2,2.36.56l38.62,22.3c.54.31.84.71.84,1.09s-.31.79-.84,1.1l-66.16,38.22c-.62.36-1.46.56-2.36.56Z"/>
          <path class="cls-9" d="M274.61,328.87c.81,0,1.58.18,2.13.5l38.62,22.3c.38.22.61.48.61.69s-.23.48-.61.69l-66.16,38.22c-.55.31-1.32.5-2.13.5s-1.58-.18-2.13-.5l-12.01-6.93-.33-.19-.37.1-23,6.04s-.08.02-.11.02c-.16,0-.27-.11-.33-.22-.07-.14-.05-.27.05-.39l9.75-12.4.66-.84-.93-.54-12.01-6.93c-.38-.22-.61-.48-.61-.69s.23-.48.61-.69l66.16-38.22c.55-.32,1.32-.5,2.13-.5M274.61,327.94c-.94,0-1.88.21-2.59.62l-66.16,38.22c-1.43.83-1.43,2.17,0,3l12.01,6.93-9.75,12.4c-.7.89-.02,2.12,1.01,2.12.11,0,.23-.01.35-.05l23-6.04,12.01,6.93c.72.41,1.66.62,2.59.62s1.88-.21,2.59-.62l66.16-38.22c1.43-.83,1.43-2.17,0-3l-38.62-22.3c-.72-.41-1.66-.62-2.59-.62h0Z"/>
        </g>
      </g>
      <g>
        <path class="cls-1" d="M248.54,376.92c-.34,0-.71-.12-1.09-.34l-17.46-10.08c-.59-.34-.35-.82.72-1.44l1.11-.64c1.07-.62,1.9-.76,2.5-.42l14.94,8.63,4.13-2.38c.3-.17.62-.23.97-.18.35.05.77.22,1.25.5l.86.5c.48.28.77.52.86.72.09.2,0,.39-.3.56l-7.43,4.29c-.35.2-.7.3-1.04.3Z"/>
        <path class="cls-1" d="M243.04,360.88l-1.66-.96c-.59-.34-.27-.87.97-1.58,1.29-.75,2.24-.95,2.83-.61l1.66.96c.59.34.27.87-.97,1.58-1.29.75-2.24.95-2.83.61ZM258.92,370.28l-12.83-7.41c-.59-.34-.33-.83.78-1.47l.78-.45c1.11-.64,1.96-.79,2.55-.45l12.83,7.41c.59.34.33.83-.78,1.47l-.78.45c-1.11.64-1.96.79-2.55.45Z"/>
        <path class="cls-1" d="M265.88,366.26l-8.84-5.1c-1.31-.76-2.29-1.27-2.94-1.54-.65-.27-1.03-.44-1.16-.51-.33-.19-.19-.56.43-1.1.62-.54,1.21-.97,1.79-1.3.35-.2.69-.28,1-.22.32.05.66.16,1.03.32.37.16.67.28.89.37-.2-.59-.19-1.17.03-1.76.22-.59.72-1.1,1.5-1.55,1.02-.59,2.12-.84,3.3-.77,1.18.07,2.4.47,3.66,1.2l10.03,5.79c.59.34.35.82-.72,1.44l-.94.54c-1.07.62-1.9.76-2.49.42l-9.09-5.25c-.48-.28-.91-.44-1.29-.49-.38-.05-.76.04-1.15.26-.5.29-.66.73-.5,1.31l9.62,5.55c.3.17.39.37.28.61-.11.23-.43.51-.97.82l-.97.56c-1.05.61-1.88.74-2.47.4Z"/>
        <path class="cls-1" d="M290.69,352.45c.3.17-.04.53-1,1.09l-1.55.9c-.35.2-.63.32-.85.36-.21.04-.47.02-.76-.04l-8.81-2.24-.3.18,5.99,3.46c.59.34.35.82-.72,1.44l-.89.51c-1.07.62-1.9.76-2.5.42l-19.18-11.07c-.59-.34-.35-.82.72-1.44l.89-.51c1.07-.62,1.9-.76,2.49-.42l11.53,6.66.14-.08-3.19-4.56c-.13-.2-.16-.36-.1-.46.07-.1.28-.26.65-.47l1.44-.83c1-.58,1.65-.77,1.97-.59.11.06.24.21.39.45l3.3,4.91,9.62,2.13c.35.07.59.15.72.22Z"/>
      </g>
    </g>
  </g>
  <path id="Icon-2" data-name="Icon" class="cls-9" d="M27.33,87.61c1.57-2.42,3.48-3.75,5.18-3.88l8.59-29.74c-.52-.3-.98-.75-1.37-1.38-1.91-3.08-1.22-9.01,1.53-13.24,2.75-4.23,6.53-5.16,8.43-2.07,1.9,3.08,1.22,9.01-1.53,13.24-1.57,2.42-3.48,3.75-5.18,3.88l-8.59,29.74c.52.3.98.75,1.37,1.38s.66,1.38.84,2.2l19.07-12.77c.12-2.68,1.02-5.65,2.59-8.07,2.75-4.23,6.53-5.16,8.43-2.07,1.91,3.08,1.22,9.01-1.53,13.24-2.75,4.23-6.53,5.16-8.43,2.07-.39-.63-.66-1.37-.84-2.2l-19.07,12.77c-.12,2.68-1.02,5.65-2.59,8.07-2.75,4.23-6.53,5.16-8.43,2.07s-1.22-9.01,1.53-13.24Z"/>
  <g id="Plants-2" data-name="Plants">
    <g>
      <path class="cls-1" d="M37.17,442.89l8.68-5.02s5.17-21.47,3.11-40.79c-2.9-27.16-20.77-37.38-27.57-35.04-6.8,2.34-8.77,10.25,2.48,26.42,6.64,9.54,14.79,29.42,13.3,54.42Z"/>
      <g class="cls-10">
        <path class="cls-5" d="M37.17,442.89l8.68-5.02s5.17-21.47,3.11-40.79c-2.9-27.16-20.77-37.38-27.57-35.04-6.8,2.34-8.77,10.25,2.48,26.42,6.64,9.54,14.79,29.42,13.3,54.42Z"/>
      </g>
      <path class="cls-5" d="M40.77,432.34s-.06,0-.08-.01c-.33-.06-.54-.38-.48-.7,4.76-25.05-3.99-53.2-14.83-64.92-.23-.24-.21-.63.03-.85.24-.22.63-.21.85.03,11.03,11.93,19.96,40.54,15.13,65.96-.06.3-.33.5-.62.49Z"/>
    </g>
    <g>
      <path class="cls-1" d="M15.32,455.51c-1.3.66-4.75-2.29-5.71-3.01-1.65-1.23-2.94-2.92-3.77-4.79-.96-2.18-1.11-4.48-.66-6.82.24-1.21.64-2.39,1.04-3.56.39-1.15.79-2.3,1.18-3.44.39-1.13.78-2.3.69-3.5-.19-2.41-2.22-4.19-4.08-5.73-2.05-1.7-4.17-3.92-4.01-6.8.12-2.22,1.37-4.22,2.84-5.9,1.46-1.67,3.17-3.13,4.51-4.91.96-1.28,1.74-2.8,1.67-4.4-.04-.99-.4-1.95-.83-2.84-.92-1.92-2.18-3.71-2.77-5.76-.6-2.05-.37-4.55,1.27-5.91,1.35-1.12,3.27-1.19,5.01-.98,1.61.19,3.15,1,4.52,1.85,4.44,2.77,6.77,8.31,11.52,10.51,1.83.85,3.87,1.12,5.79,1.73,1.92.61,3.86,1.71,4.67,3.56,1.6,3.64-1.92,7.86-.86,11.69.94,3.39,4.12,4.84,5.79,7.94.73,1.36.84,2.89.63,4.41-.35,2.58-.82,4.47-2.21,7.29-1.15,2.33-4.39,6.74-4.39,6.74,0,0-21.65,12.51-21.85,12.61Z"/>
      <g class="cls-3">
        <path class="cls-5" d="M15.32,455.51c-1.3.66-4.75-2.29-5.71-3.01-1.65-1.23-2.94-2.92-3.77-4.79-.96-2.18-1.11-4.48-.66-6.82.24-1.21.64-2.39,1.04-3.56.39-1.15.79-2.3,1.18-3.44.39-1.13.78-2.3.69-3.5-.19-2.41-2.22-4.19-4.08-5.73-2.05-1.7-4.17-3.92-4.01-6.8.12-2.22,1.37-4.22,2.84-5.9,1.46-1.67,3.17-3.13,4.51-4.91.96-1.28,1.74-2.8,1.67-4.4-.04-.99-.4-1.95-.83-2.84-.92-1.92-2.18-3.71-2.77-5.76-.6-2.05-.37-4.55,1.27-5.91,1.35-1.12,3.27-1.19,5.01-.98,1.61.19,3.15,1,4.52,1.85,4.44,2.77,6.77,8.31,11.52,10.51,1.83.85,3.87,1.12,5.79,1.73,1.92.61,3.86,1.71,4.67,3.56,1.6,3.64-1.92,7.86-.86,11.69.94,3.39,4.12,4.84,5.79,7.94.73,1.36.84,2.89.63,4.41-.35,2.58-.82,4.47-2.21,7.29-1.15,2.33-4.39,6.74-4.39,6.74,0,0-21.65,12.51-21.85,12.61Z"/>
      </g>
      <path class="cls-5" d="M27.89,448.96s-.02,0-.02,0c-.32-.03-.55-.31-.52-.62,2.08-22.53-7.3-48-14.67-55.63-.22-.23-.21-.59.01-.81.23-.22.59-.21.81.01,7.52,7.79,17.1,33.68,14.99,56.53-.03.31-.29.53-.6.52Z"/>
      <path class="cls-5" d="M25.65,421.17c-.06,0-.11-.01-.17-.03-7.14-2.61-16.16-3.46-16.25-3.47-.31-.03-.54-.31-.52-.62.03-.31.28-.55.62-.52.09,0,9.26.87,16.54,3.53.3.11.45.43.34.73-.09.24-.32.39-.56.37Z"/>
    </g>
  </g>
  <g id="Character-2" data-name="Character">
    <g id="Bottom">
      <g>
        <path class="cls-8" d="M336.44,395.41c.09,4.94.48,12.13,0,14.18-.48,2.05-8.72,4.05-15.16,4.35-6.44.3-14.19-.7-14.65,3.82-.47,4.57,3.57,7.6,6.53,8.96,5.02,2.32,10.63,1.82,15.55,1.1,4.93-.72,7.55-.2,12.76,1.07,5.2,1.27,8.14.49,10.37-.62,3.3-1.65,2.42-7.28,1.25-10.95-1.17-3.67-1.03-7.02-.6-12.11.44-5.09,1.88-12.51,1.88-12.51l-17.93,2.72Z"/>
        <path class="cls-6" d="M353.09,417.32s0,1.56-3.37,2.27c-3.38.71-8.98.53-12.9.78-5.88.38-10.35,1.05-17.1,0-5.92-.92-5.67-5.62-.37-6.37h0c-5.96.1-12.3-.31-12.72,3.76-.47,4.57,3.57,7.6,6.53,8.96,5.02,2.32,10.63,1.82,15.55,1.1,4.93-.72,7.55-.2,12.76,1.07,5.2,1.27,8.14.49,10.37-.62,3.3-1.65,2.42-7.28,1.25-10.95Z"/>
      </g>
      <g>
        <path class="cls-8" d="M397.62,383.15c2.76,4.01,7.32,11.59,7.95,13.48.63,1.89,1.21,8.94,0,11.03-1.72,1.26-4.44,1.99-6.75,3.13-3.34,1.65-4.06,4.39-1.88,6.48,3.05,2.92,7.96,3.27,10.93,3.09,4.32-.66,4.61-5.5,5.24-9.78.62-4.28-.08-12.71,3.17-17.89,3.25-5.18,9.01-5.66,9.76-3.94-.35-2.6-1.79-2.68-4.9-4.44-3.11-1.76-5.83-1.71-7.55-5.79-2.04-4.84-3.89-10.61-3.89-10.61l-12.07,15.24Z"/>
        <path class="cls-2" d="M403.69,420.44c3.11.52,5.28.52,10.79-2.18,4.75-2.33,5.96-3.32,6.69-4.61,1.15-2.04-.09-7.09.91-11.45s2.06-6.25,3.14-8.89c1.08-2.64,1-3.79.83-4.55-.37-1.65-3.73-1.86-6.93,0-3.2,1.86-5.27,5.4-6.32,13.83-1.06,8.43.57,17.66-9.09,17.86Z"/>
        <path class="cls-6" d="M426.04,388.76c-.35-2.6-1.25-2.99-4.37-4.75-1.16-.65-2.3-1.12-3.36-1.66h0c-3.01-.57-7.76,1.81-8.01,8.14-.24,6.33.84,14.35-1.06,17.33-1.62,2.53-4.29,2.36-3.67-.15-4.27,1.57-5.74,1.59-8.15,2.91-2.78,1.52-3.72,5.5-1.15,7.1,3.59,2.22,7.29,3.36,11.61,2.7,4.32-.66,4.61-5.5,5.24-9.78s-.08-12.71,3.17-17.89c3.25-5.18,9.01-5.66,9.76-3.94Z"/>
      </g>
      <g>
        <path class="cls-6" d="M398.44,385.67s-15.69-23.05-24.08-37.99c-6.2-11.04-6.76-13.18-8.28-20.4-3.26-15.52-4.03-19.16-4.03-19.16l-4.87,31.35c.78,3.4,2.35,10.14,2.41,14.11.08,5.27-.4,12.68-1.89,23.11-2.36,16.59-4.77,25.61-4.77,25.61-1.22.85-4.76,1.01-7.83.91-4.26-.13-8.81-1.65-8.81-1.65,0,0-2.56-36.94-3.15-47.1-.72-12.2-.97-16.99-1.35-23.68-.61-10.66-2.06-26.11-1.64-45.7.82-38.98,9.51-56.77,9.51-56.77l44-6.11c3.65,13.13,11.24,14.66,12.04,32.58.18,4.07-1.97,12.15-2.04,18.46-.23,20.48-2.06,52.65-2.06,52.65,4.83,4.45,8.37,8.48,11.71,18.81,2.03,6.27,6.52,22.16,8.41,28.6-5.55,0-13.33,9.86-13.27,12.37Z"/>
        <g>
          <path class="cls-14" d="M353.96,250.77l1.17-.18c1.03,7.06,2.71,15.07,3.64,15.71,1.61,1.1,7.6,2,8.94,1.66,1.39-.34,2.53-1.43,4.92-4.68,1.68-2.28,1.5-3.7,1.1-6.81-.15-1.17-.32-2.49-.42-4.15l1.18-.08c.1,1.62.27,2.92.41,4.07.4,3.13.64,5.02-1.33,7.69-2.58,3.51-3.89,4.71-5.59,5.13-.2.05-.45.08-.75.09-2.37.11-7.52-.83-9.12-1.92-1.8-1.23-3.63-12.97-4.15-16.54Z"/>
          <path class="cls-14" d="M335.94,249.72l1.13.33c-3.33,11.97-2.6,22.93,3.36,26.26,1.09-8.08,2.62-16.43,4.73-25.37l1.15.28c-6.78,28.78-7.6,51.46-6.73,78.71.67,20.75,1.98,56.44,2.59,72.99-.41-.06-.8-.13-1.19-.2-.62-16.66-1.92-52.1-2.59-72.76-.59-18.45-.4-34.81,1.87-52.38-6.83-3.47-7.9-15.03-4.33-27.87Z"/>
          <path class="cls-14" d="M395.18,260.47c-.64.63-2.06,1.48-2.58,1.52h-.04c-1.86.09-4.93-2.56-5.8-4.55-.42-.97-.56-2.14-.74-3.62-.18-1.54-.39-3.28-.98-5.36l1.13-.34c.62,2.16.84,4.04,1.02,5.54.17,1.38.3,2.47.65,3.27.74,1.69,3.43,3.9,4.67,3.84h.02c.32-.02,2.05-1.25,2.94-2.33-.08.59-.19,1.41-.28,2.01Z"/>
          <path class="cls-14" d="M402.13,379.46c.27-.31.55-.62.84-.93-7.51-13.1-23.65-41.75-25.09-48.71-1.84-8.91-5.02-38.76-5.15-54.82h-1.18c.13,16.13,3.32,46.12,5.17,55.07,1.51,7.28,17.93,36.4,25.4,49.39Z"/>
          <path class="cls-14" d="M379.11,246.08c2.98,4.75,4.8,13.08.95,22.22l-1.08-.48c3.67-8.7,1.96-16.6-.86-21.09l.99-.65Z"/>
        </g>
        <path class="cls-14" d="M362.05,308.12l4.78-32.87s12.37-1.73,14.08-13.33c.3,6.88-2.45,12.81-10.13,15.99l-6.14,30.34,1.44,19.04-4.03-19.16Z"/>
      </g>
    </g>
    <g id="Top">
      <g id="Mobile">
        <g>
          <path class="cls-14" d="M280.94,159.21v-33.91c0-.67-.03-1.21-.74-1.64-.71-.43-1.21-.15-1.79.18l-14.82,8.56c-.58.33-1.05,1.15-1.05,1.82v33.91c0,.67.33,1.4.74,1.64s1.21.15,1.79-.18l14.82-8.56c.58-.33,1.05-.88,1.05-1.82Z"/>
          <path class="cls-2" d="M280,159.55l-15.24,8.8v-34.07s-1.9-1.1-1.9-1.1c-.19.33-.31.7-.31,1.03v33.91c0,.67.08,1.25.74,1.64s1.21.15,1.79-.18l14.82-8.56c.36-.21.72-.52.91-1.01l-.06-.03-.74-.43Z"/>
        </g>
        <path class="cls-6" d="M279.86,124.99l-14.87,8.58c-.41.23-.74.81-.74,1.27v33.62c0,.72.51,1.01,1.13.65l14.47-8.35c.46-.27.83-.91.83-1.44v-33.85c0-.53-.38-.75-.83-.48Z"/>
        <g>
          <path class="cls-2" d="M279.97,127.17v31.3c0,.5-.36,1.12-.79,1.37l-13.4,7.74c-.44.25-.79.05-.79-.46v-31.54c0-.41.23-.89.56-1.19.03-.02.05-.05.08-.07.05-.04.11-.08.16-.11l3.77-2.18s.11-.06.25-.14c.14-.08.25-.02.25.14s.12.22.26.13l4.39-2.54c.14-.08.26-.28.26-.43,0-.15.1-.32.22-.41,0,0,.02-.01.03-.02l3.69-2.13.08-.05c.55-.32,1-.06,1,.58Z"/>
          <path class="cls-5" d="M278.89,126.64v31.09c0,.5-.36,1.12-.79,1.37l-13.11,7.57v-31.09c0-.41.23-.89.56-1.19.03-.02.05-.05.08-.07.05-.04.11-.08.16-.11l3.77-2.18s.11-.06.25-.14c.14-.08.25-.02.25.14s.12.22.26.13l4.39-2.54c.14-.08.26-.28.26-.43,0-.15.1-.32.22-.41,0,0,.02-.01.03-.02l3.69-2.13Z"/>
          <g>
            <path class="cls-2" d="M270.97,130.83l2.01-1.16c.12-.07.22-.02.22.11s-.1.29-.22.36l-2.01,1.16c-.12.07-.22.02-.22-.11s.1-.29.22-.36Z"/>
            <path class="cls-2" d="M274.02,128.97c.14-.08.25-.01.25.14s-.11.35-.25.42c-.14.08-.25.01-.25-.14s.11-.35.25-.42Z"/>
          </g>
        </g>
        <g>
          <g>
            <path class="cls-6" d="M263.92,138.52c0-.26-.17-.58-.39-.7-.1-.06-.2-.06-.27-.02-.05.03-.24.14-.29.17-.07.04-.12.14-.12.28v2.93c0,.26.17.58.39.7.1.06.19.06.26.03.05-.03.25-.14.3-.17.07-.04.12-.14.12-.28v-2.93Z"/>
            <path class="cls-14" d="M263.63,138.69v2.93c0,.26-.17.38-.39.25-.21-.12-.39-.44-.39-.7v-2.93c0-.26.17-.38.39-.25s.39.44.39.7Z"/>
          </g>
          <g>
            <path class="cls-6" d="M263.92,143.64c0-.26-.17-.58-.39-.7-.1-.06-.2-.06-.27-.02-.05.03-.24.14-.29.17-.07.04-.12.14-.12.28v2.93c0,.26.17.58.39.7.1.06.19.06.26.03.05-.03.25-.14.3-.17.07-.04.12-.14.12-.28v-2.93Z"/>
            <path class="cls-14" d="M263.63,143.81v2.93c0,.26-.17.38-.39.25-.21-.12-.39-.44-.39-.7v-2.93c0-.26.17-.38.39-.25s.39.44.39.7Z"/>
          </g>
        </g>
      </g>
      <g>
        <path class="cls-8" d="M387.37,169.09c8.01,1.9,12.35,4.12,15.64,15.01,3.12,10.3,8.35,27.7,9.71,35.07.67,3.6.97,7.02-4.02,9.13-11.29,4.78-22.19,8.13-22.19,8.13l-4.41-13.33,12.08-6.03-3.01-9.72-3.8-38.25Z"/>
        <path class="cls-12" d="M394.19,217.06c.86,1.89,2.57,4.26,4.97,5.44-2.94.36-5.81-2.72-6.56-4.65l1.58-.79Z"/>
      </g>
      <g>
        <path class="cls-2" d="M348.49,129.24c-1.4-1.87-1.2-4.66-.2-6.77,1-2.11,2.94-4.27,8.3-6.58,6.37-2.74,23.77-4.57,30.44,7.08,1,1.74-17.19,32.51-16.83,39.05-3.99-4.84-17.09-21.8-17.09-21.8-3.27-1.67-5.22-3.04-5.71-6.27-.14-.92.07-3.24,1.09-4.71Z"/>
        <g>
          <path class="cls-12" d="M350.39,138.26s-5.08,7.12-4.62,7.76c.46.64,3.21,2.47,3.21,2.47l1.41-10.23Z"/>
          <path class="cls-8" d="M357.01,125.1c-3.16,1.23-5.97,3.38-7.4,10.02-.37,1.73.82,4.23.04,6.52-3.37,9.79-.8,18.34,1.01,20.32,1.22,1.33,8.04,2.37,11.71,1.62,4.59-.93,14.68-4.65,19.84-11.36,6.07-7.89,8.15-18.93,2.36-23.83-8.15-6.9-24.18-4.6-27.55-3.29Z"/>
          <path class="cls-8" d="M378.87,157.65l.57,9.95h0c5.52,3.23-5.9,7.44-18.02,2.26l-.87-8.97,18.32-3.23Z"/>
          <path class="cls-8" d="M360.95,164.97c.22,2.3.45,5.74-3.12,6.69-3.35.89-8.78,1.45-14.06,3.43,0,0,19.04,3.01,29.03,1.36s11.73-8.07,11.73-8.07c-3.6-.48-5.1-1.08-5.23-3.4h-18.34Z"/>
          <path class="cls-12" d="M351.01,162.23c1.53,1,5,1.9,9.83,1.58l-.21-2.49s-1.97.69-4.65,1.04c-2.66.35-4.93-.12-4.96-.12Z"/>
        </g>
        <path class="cls-2" d="M352.24,128.35c-.48,4.34,2.15,5.9,4.03,6.89-.78,1.21-1.34,3.66-1.16,5.07.28,2.24.99,4.1,3.1,4.98,1.3.54,1.73-.02,2.28-1.03.78-1.44,1.79-3.66,4.95-3,3.63.76,4.2,6.35,1.81,9.81-1.05,1.53-2.69,2.51-4.33,2.49-1.47-.02-2.41-1.35-2.41-1.35,0,0-.1,4.84,5.89,8.13,0,0,6,3.96,12.54,2.52,2.6-2.68,5.64-5.44,8.86-9.46,7.45-9.28,9.01-26.92-2.27-30.94-.54-.19-9.8-2.53-14.97-1.79-15.84,2.27-18.24,6.93-18.33,7.68Z"/>
        <path class="cls-2" d="M387.03,122.96c1.78,0,7.16,2.74,7.15,14.7,0,8.07-1.96,18.88-4.58,23.94-6.92,7.63-26.96,9.09-35.82,5.89,5.74-2.63,6.77-9.76,6.74-15.29,2.62,3.97,7.42,4.91,13.22,2,5.8-2.91,13.3-31.25,13.3-31.25Z"/>
      </g>
      <path class="cls-1" d="M395.14,178.98c-1.66-8.07-6.04-9.83-7.99-10.17-3.11-.56-5.04-.88-5.04-.88.06.96.69,3.24-8.24,4.36-5.75.72-15.65-.75-15.65-.75l-8.84,1.2c-3.28,1.97-11.29,9.74-15.08,18.67-2.99,7.06-1.87,14.25,3.46,19.5.41,4.43-.32,13.22-.32,13.22-3.06,16.01-4.77,22.75-4.77,22.75,0,0,4.19,6.55,31.31,5.94,21.01-.47,30.7-9.86,30.7-9.86-.6-3.14-2.8-9.86-6.77-20.32.53-10.22,10.81-26.19,7.22-43.65Z"/>
      <path class="cls-8" d="M304.28,183.99s-20.23-12.45-21.49-14.14c-1.07-1.43-1.01-3.21-1.24-4.89-.27-1.93-.93-3.79-1.73-5.55-.53-1.16-1.26-2.25-1.72-3.43-.43-1.1-.37-2.29-.77-3.39-.43-1.19-1.52-.75-2.22-.03-.93.96-1.21,2.63-1.12,3.91.04.61.06,1.22.1,1.83.04.56.19,1.14.12,1.7-.03.27-.11.62-.31.8-.47.42-1.32-.23-1.7-.53-2.47-2-4.63-4.67-6.08-7.49-.64-1.24-1.04-2.53-1.77-3.73-.64-1.06-1.49-2.2-2.44-3-.49-.42-1.58-1.23-2.28-1.19-1.38.07-.61,2.46-.5,3.23.14.95.16,1.64-.17,2.56-.44,1.2-.37,1.78-.01,3,.3,1.03.89,2.19.7,3.26-.07.37-.23.75-.34,1.1-.32,1.01-.04,2.51.36,3.45.52,1.22.51,1.92.25,3.21-.5,2.49,1.47,5.05,2.98,6.79,1.74,2,3.82,3.69,5.98,5.23,1.16.83,2.26,1.75,3.44,2.55,1.06.72,2.19,1.32,3.19,2.11,2.39,1.88,11.46,10.7,22.02,19.24,3.49,2.82,4.56,3.8,11.32,2.59,12.17-2.19,14.9-2.8,22.17-4.15,11.09-2.06,12.45-2.4,12.45-2.4,6.92-2.98,7.88-11.29,8.06-15.43.23-5.19-2.16-8.46-2.16-8.46-6.34.29-11.8,1.77-21.92,4.73-11.92,3.49-23.17,6.52-23.17,6.52Z"/>
    </g>
  </g>
  <g id="Speech_Bubble-4" data-name="Speech_Bubble">
    <g id="Speech_Bubble-5" data-name="Speech_Bubble">
      <path class="cls-1" d="M367.11,106.59l-3.84-7.22,3.09-8.92v-5.46l-9.46,5.46v5.46l4.07,7.04c.07.12.17.2.28.25h0s5.87,3.39,5.87,3.39Z"/>
      <path class="cls-11" d="M367.11,106.59l-3.84-7.22,3.09-8.92v-5.46l-9.46,5.46v5.46l4.07,7.04c.07.12.17.2.28.25h0s5.87,3.39,5.87,3.39Z"/>
      <path class="cls-1" d="M387.41,37.26c0-1.81-1.27-4.01-2.84-4.91l-2.31-1.33c-1.57-.9-4.1-.9-5.67,0l-32.61,18.91c-1.57.9-2.84,3.1-2.84,4.91v44.58c0,1.81,1.27,4.01,2.84,4.91l2.31,1.33c1.57.9,4.1.9,5.67,0l10.87-6.31,4.06,7.03c.26.45.93.39,1.1-.1l4.29-12.38,12.3-7.14c1.57-.9,2.83-3.1,2.83-4.91v-44.58Z"/>
      <path class="cls-11" d="M341.15,99.42c0,1.81,1.27,4.01,2.84,4.91l2.31,1.33c1.42.82,3.62.89,5.19.23-1.33.5-2.35-.25-2.35-1.87v-44.58c0-.9.32-1.91.83-2.79l-7.98-4.61c-.51.89-.83,1.89-.83,2.79v44.58Z"/>
      <path class="cls-4" d="M387.32,36.46c-.33-1.2-1.43-1.59-2.74-.83l-32.62,18.91c-.78.45-1.49,1.22-2,2.12l-7.98-4.6c.52-.9,1.22-1.67,2-2.12l32.61-18.91c1.57-.9,4.11-.9,5.67,0l2.31,1.34c1.34.77,2.46,2.49,2.74,4.1Z"/>
    </g>
    <g id="Icon-3" data-name="Icon">
      <path id="Online_icon" class="cls-5" d="M376.84,51.06c-2.6-1.5-5.91-1.25-9.31.71-7.57,4.37-13.72,16.11-13.72,26.18,0,5.4,1.79,9.53,4.9,11.33,1.12.65,2.37.97,3.71.97,1.76,0,3.67-.56,5.61-1.68,7.57-4.37,13.72-16.11,13.72-26.18,0-5.4-1.79-9.53-4.91-11.33ZM354.83,77.07c.18-4.98,1.83-10.3,4.39-14.84.61.29,1.25.49,1.92.6-1.5,3.98-2.36,8.13-2.4,11.97l-3.92,2.26ZM368.27,70.45l7.54-4.35c-.12,3.64-.97,7.55-2.41,11.29-1.61-.05-3.35.38-5.12,1.28v-8.22ZM368.27,69.31v-8.19c1.88-1.13,3.72-2.75,5.41-4.74,1.34,2.12,2.1,5.06,2.14,8.57l-7.55,4.36ZM368.27,59.95v-7.21c1.93.24,3.58,1.22,4.83,2.81-1.51,1.82-3.15,3.31-4.83,4.4ZM367.29,60.55c-1.65.91-3.25,1.38-4.74,1.4,1.24-2.99,2.85-5.85,4.74-8.35v6.95ZM362.15,62.94c.09,0,.18.02.27.02,1.54,0,3.19-.45,4.87-1.3v8.23l-7.54,4.36c.12-3.65.97-7.55,2.41-11.3ZM367.29,71.02v8.19c-1.89,1.13-3.73,2.75-5.42,4.75-1.34-2.12-2.1-5.06-2.14-8.57l7.56-4.36ZM367.29,80.38v7.22c-1.94-.24-3.58-1.22-4.84-2.81,1.51-1.82,3.16-3.31,4.84-4.41ZM368.27,79.78c1.65-.91,3.25-1.37,4.73-1.4-1.24,2.99-2.85,5.85-4.73,8.34v-6.94ZM376.81,65.52l3.92-2.27c-.18,4.99-1.83,10.31-4.39,14.85-.61-.29-1.25-.5-1.93-.61,1.5-3.98,2.36-8.13,2.4-11.97ZM380.75,62.11l-3.96,2.29c-.12-3.61-.98-6.63-2.45-8.82.83-1.05,1.62-2.19,2.35-3.41,2.53,1.7,4,5.27,4.06,9.95ZM375.85,51.66c-.66,1.1-1.37,2.13-2.11,3.09-1.17-1.43-2.66-2.38-4.37-2.81,1.31-.57,2.58-.87,3.77-.87.97,0,1.88.2,2.71.59ZM365.48,54.43c-1.56,2.3-2.9,4.83-3.97,7.47-.63-.08-1.24-.26-1.81-.52,1.65-2.73,3.61-5.14,5.77-6.95ZM354.8,78.22l3.95-2.28c.12,3.61.98,6.64,2.45,8.83-.83,1.05-1.62,2.19-2.35,3.41-2.53-1.7-4-5.27-4.05-9.95ZM359.71,88.66c.66-1.09,1.36-2.12,2.1-3.07,1.17,1.42,2.65,2.38,4.35,2.8-2.36,1.03-4.6,1.13-6.45.27ZM370.07,85.91c1.57-2.3,2.9-4.84,3.97-7.47.64.08,1.24.26,1.81.52-1.65,2.74-3.62,5.14-5.78,6.95Z"/>
    </g>
  </g>
</svg>